<?plantuml 1.2026.2?><svg xmlns="http://www.w3.org/2000/svg" xmlns:xlink="http://www.w3.org/1999/xlink" contentStyleType="text/css" data-diagram-type="SEQUENCE" height="1115px" preserveAspectRatio="none" style="width:1722px;height:1115px;background:#FFFFFF;" version="1.1" viewBox="0 0 1722 1115" width="1722px" zoomAndPan="magnify"><title>Workflow Chuy&#234;n Audio (Text-to-Speech)</title><defs/><g><text fill="#000000" font-family="sans-serif" font-size="14" font-weight="bold" lengthAdjust="spacing" textLength="326.2314" x="694.2004" y="27.9951">Workflow Chuy&#234;n Audio (Text-to-Speech)</text><rect fill="#FFFFE0" height="1066.1172" style="stroke:#181818;stroke-width:0.5;" width="723.1953" x="351.7715" y="43.2969"/><text fill="#000000" font-family="sans-serif" font-size="13" font-weight="bold" lengthAdjust="spacing" textLength="76.8638" x="674.9373" y="55.3638">TtsService</text><rect fill="none" height="88.3984" style="stroke:#000000;stroke-width:1.5;" width="918.8262" x="345.7715" y="425.7891"/><rect fill="none" height="412.6641" style="stroke:#000000;stroke-width:1.5;" width="1642.1294" x="63.5029" y="571.3203"/><rect fill="none" height="206.7344" style="stroke:#000000;stroke-width:1.5;" width="760.3101" x="935.3223" y="711.9844"/><g class="participant-lifeline" data-entity-uid="part1" data-qualified-name="User" id="part1-lifeline"><g><title>User</title><rect fill="#000000" fill-opacity="0.00000" height="911.5234" width="8" x="19.9551" y="118.5938"/><line style="stroke:#181818;stroke-width:0.5;stroke-dasharray:5,5;" x1="23" x2="23" y1="118.5938" y2="1030.1172"/></g></g><g class="participant-lifeline" data-entity-uid="part2" data-qualified-name="UI" id="part2-lifeline"><g><title>MergeTtsViewModel</title><rect fill="#000000" fill-opacity="0.00000" height="911.5234" width="8" x="146.9268" y="118.5938"/><line style="stroke:#181818;stroke-width:0.5;stroke-dasharray:5,5;" x1="150.5029" x2="150.5029" y1="118.5938" y2="1030.1172"/></g></g><g class="participant-lifeline" data-entity-uid="part3" data-qualified-name="TTS" id="part3-lifeline"><g><title>Main Thread</title><rect fill="#000000" fill-opacity="0.00000" height="911.5234" width="8" x="402.3369" y="118.5938"/><line style="stroke:#181818;stroke-width:0.5;stroke-dasharray:5,5;" x1="405.7715" x2="405.7715" y1="118.5938" y2="1030.1172"/></g></g><g class="participant-lifeline" data-entity-uid="part4" data-qualified-name="Queue" id="part4-lifeline"><g><title>TTS Queue</title><rect fill="#000000" fill-opacity="0.00000" height="911.5234" width="8" x="789.9814" y="118.5938"/><line style="stroke:#181818;stroke-width:0.5;stroke-dasharray:5,5;" x1="793.1387" x2="793.1387" y1="118.5938" y2="1030.1172"/></g></g><g class="participant-lifeline" data-entity-uid="part5" data-qualified-name="Workers" id="part5-lifeline"><g><title>Worker Threads</title><rect fill="#000000" fill-opacity="0.00000" height="911.5234" width="8" x="1004.1445" y="118.5938"/><line style="stroke:#181818;stroke-width:0.5;stroke-dasharray:5,5;" x1="1007.3223" x2="1007.3223" y1="118.5938" y2="1030.1172"/></g></g><g class="participant-lifeline" data-entity-uid="part6" data-qualified-name="OS_TTS" id="part6-lifeline"><g><title>System.Speech.Synthesis</title><rect fill="#000000" fill-opacity="0.00000" height="911.5234" width="8" x="1255.5977" y="118.5938"/><line style="stroke:#181818;stroke-width:0.5;stroke-dasharray:5,5;" x1="1259.5103" x2="1259.5103" y1="118.5938" y2="1030.1172"/></g></g><g class="participant-lifeline" data-entity-uid="part7" data-qualified-name="Lame" id="part7-lifeline"><g><title>NAudio.Lame .MP3.</title><rect fill="#000000" fill-opacity="0.00000" height="911.5234" width="8" x="1438.7588" y="118.5938"/><line style="stroke:#181818;stroke-width:0.5;stroke-dasharray:5,5;" x1="1442.6851" x2="1442.6851" y1="118.5938" y2="1030.1172"/></g></g><g class="participant-lifeline" data-entity-uid="part8" data-qualified-name="DB" id="part8-lifeline"><g><title>SQLite</title><rect fill="#000000" fill-opacity="0.00000" height="911.5234" width="8" x="1550.6816" y="118.5938"/><line style="stroke:#181818;stroke-width:0.5;stroke-dasharray:5,5;" x1="1553.8325" x2="1553.8325" y1="118.5938" y2="1030.1172"/></g></g><g class="participant-lifeline" data-entity-uid="part9" data-qualified-name="FS" id="part9-lifeline"><g><title>File System</title><rect fill="#000000" fill-opacity="0.00000" height="911.5234" width="8" x="1634.0815" y="118.5938"/><line style="stroke:#181818;stroke-width:0.5;stroke-dasharray:5,5;" x1="1637.5308" x2="1637.5308" y1="118.5938" y2="1030.1172"/></g></g><g class="participant participant-head" data-entity-uid="part1" data-qualified-name="User" id="part1-head"><text fill="#000000" font-family="sans-serif" font-size="14" lengthAdjust="spacing" textLength="31.9102" x="5" y="115.292">User</text><ellipse cx="23.9551" cy="50.7969" fill="#E2E2F0" rx="8" ry="8" style="stroke:#181818;stroke-width:0.5;"/><path d="M23.9551,58.7969 L23.9551,85.7969 M10.9551,66.7969 L36.9551,66.7969 M23.9551,85.7969 L10.9551,100.7969 M23.9551,85.7969 L36.9551,100.7969" fill="none" style="stroke:#181818;stroke-width:0.5;"/></g><g class="participant participant-tail" data-entity-uid="part1" data-qualified-name="User" id="part1-tail"><text fill="#000000" font-family="sans-serif" font-size="14" lengthAdjust="spacing" textLength="31.9102" x="5" y="1042.1123">User</text><ellipse cx="23.9551" cy="1053.9141" fill="#E2E2F0" rx="8" ry="8" style="stroke:#181818;stroke-width:0.5;"/><path d="M23.9551,1061.9141 L23.9551,1088.9141 M10.9551,1069.9141 L36.9551,1069.9141 M23.9551,1088.9141 L10.9551,1103.9141 M23.9551,1088.9141 L36.9551,1103.9141" fill="none" style="stroke:#181818;stroke-width:0.5;"/></g><g class="participant participant-head" data-entity-uid="part2" data-qualified-name="UI" id="part2-head"><rect fill="#E2E2F0" height="30.2969" rx="2.5" ry="2.5" style="stroke:#181818;stroke-width:0.5;" width="154.8477" x="73.5029" y="87.2969"/><text fill="#000000" font-family="sans-serif" font-size="14" lengthAdjust="spacing" textLength="140.8477" x="80.5029" y="107.292">MergeTtsViewModel</text></g><g class="participant participant-tail" data-entity-uid="part2" data-qualified-name="UI" id="part2-tail"><rect fill="#E2E2F0" height="30.2969" rx="2.5" ry="2.5" style="stroke:#181818;stroke-width:0.5;" width="154.8477" x="73.5029" y="1029.1172"/><text fill="#000000" font-family="sans-serif" font-size="14" lengthAdjust="spacing" textLength="140.8477" x="80.5029" y="1049.1123">MergeTtsViewModel</text></g><g class="participant participant-head" data-entity-uid="part3" data-qualified-name="TTS" id="part3-head"><rect fill="#E2E2F0" height="30.2969" rx="2.5" ry="2.5" style="stroke:#181818;stroke-width:0.5;" width="101.1309" x="355.7715" y="87.2969"/><text fill="#000000" font-family="sans-serif" font-size="14" lengthAdjust="spacing" textLength="87.1309" x="362.7715" y="107.292">Main Thread</text></g><g class="participant participant-tail" data-entity-uid="part3" data-qualified-name="TTS" id="part3-tail"><rect fill="#E2E2F0" height="30.2969" rx="2.5" ry="2.5" style="stroke:#181818;stroke-width:0.5;" width="101.1309" x="355.7715" y="1029.1172"/><text fill="#000000" font-family="sans-serif" font-size="14" lengthAdjust="spacing" textLength="87.1309" x="362.7715" y="1049.1123">Main Thread</text></g><g class="participant participant-head" data-entity-uid="part4" data-qualified-name="Queue" id="part4-head"><rect fill="#E2E2F0" height="46.5938" rx="2.5" ry="2.5" style="stroke:#181818;stroke-width:0.5;" width="153.6855" x="717.1387" y="71"/><text fill="#000000" font-family="sans-serif" font-size="14" lengthAdjust="spacing" textLength="76.4326" x="755.7651" y="90.9951">TTS Queue</text><text fill="#000000" font-family="sans-serif" font-size="14" lengthAdjust="spacing" textLength="139.6855" x="724.1387" y="107.292">(BlockingCollection)</text></g><g class="participant participant-tail" data-entity-uid="part4" data-qualified-name="Queue" id="part4-tail"><rect fill="#E2E2F0" height="46.5938" rx="2.5" ry="2.5" style="stroke:#181818;stroke-width:0.5;" width="153.6855" x="717.1387" y="1029.1172"/><text fill="#000000" font-family="sans-serif" font-size="14" lengthAdjust="spacing" textLength="76.4326" x="755.7651" y="1049.1123">TTS Queue</text><text fill="#000000" font-family="sans-serif" font-size="14" lengthAdjust="spacing" textLength="139.6855" x="724.1387" y="1065.4092">(BlockingCollection)</text></g><g class="participant participant-head" data-entity-uid="part5" data-qualified-name="Workers" id="part5-head"><rect fill="#E2E2F0" height="46.5938" rx="2.5" ry="2.5" style="stroke:#181818;stroke-width:0.5;" width="125.6445" x="945.3223" y="71"/><text fill="#000000" font-family="sans-serif" font-size="14" lengthAdjust="spacing" textLength="111.6445" x="952.3223" y="90.9951">Worker Threads</text><text fill="#000000" font-family="sans-serif" font-size="14" lengthAdjust="spacing" textLength="94.0967" x="961.0962" y="107.292">(Thread Pool)</text></g><g class="participant participant-tail" data-entity-uid="part5" data-qualified-name="Workers" id="part5-tail"><rect fill="#E2E2F0" height="46.5938" rx="2.5" ry="2.5" style="stroke:#181818;stroke-width:0.5;" width="125.6445" x="945.3223" y="1029.1172"/><text fill="#000000" font-family="sans-serif" font-size="14" lengthAdjust="spacing" textLength="111.6445" x="952.3223" y="1049.1123">Worker Threads</text><text fill="#000000" font-family="sans-serif" font-size="14" lengthAdjust="spacing" textLength="94.0967" x="961.0962" y="1065.4092">(Thread Pool)</text></g><g class="participant participant-head" data-entity-uid="part6" data-qualified-name="OS_TTS" id="part6-head"><rect fill="#E2E2F0" height="30.2969" rx="2.5" ry="2.5" style="stroke:#181818;stroke-width:0.5;" width="194.1748" x="1162.5103" y="87.2969"/><text fill="#000000" font-family="sans-serif" font-size="14" lengthAdjust="spacing" textLength="180.1748" x="1169.5103" y="107.292">System.Speech.Synthesis</text></g><g class="participant participant-tail" data-entity-uid="part6" data-qualified-name="OS_TTS" id="part6-tail"><rect fill="#E2E2F0" height="30.2969" rx="2.5" ry="2.5" style="stroke:#181818;stroke-width:0.5;" width="194.1748" x="1162.5103" y="1029.1172"/><text fill="#000000" font-family="sans-serif" font-size="14" lengthAdjust="spacing" textLength="180.1748" x="1169.5103" y="1049.1123">System.Speech.Synthesis</text></g><g class="participant participant-head" data-entity-uid="part7" data-qualified-name="Lame" id="part7-head"><rect fill="#E2E2F0" height="30.2969" rx="2.5" ry="2.5" style="stroke:#181818;stroke-width:0.5;" width="152.1475" x="1366.6851" y="87.2969"/><text fill="#000000" font-family="sans-serif" font-size="14" lengthAdjust="spacing" textLength="138.1475" x="1373.6851" y="107.292">NAudio.Lame (MP3)</text></g><g class="participant participant-tail" data-entity-uid="part7" data-qualified-name="Lame" id="part7-tail"><rect fill="#E2E2F0" height="30.2969" rx="2.5" ry="2.5" style="stroke:#181818;stroke-width:0.5;" width="152.1475" x="1366.6851" y="1029.1172"/><text fill="#000000" font-family="sans-serif" font-size="14" lengthAdjust="spacing" textLength="138.1475" x="1373.6851" y="1049.1123">NAudio.Lame (MP3)</text></g><g class="participant participant-head" data-entity-uid="part8" data-qualified-name="DB" id="part8-head"><text fill="#000000" font-family="sans-serif" font-size="14" lengthAdjust="spacing" textLength="45.6982" x="1528.8325" y="115.292">SQLite</text><path d="M1536.6816,66.2969 C1536.6816,56.2969 1554.6816,56.2969 1554.6816,56.2969 C1554.6816,56.2969 1572.6816,56.2969 1572.6816,66.2969 L1572.6816,92.2969 C1572.6816,102.2969 1554.6816,102.2969 1554.6816,102.2969 C1554.6816,102.2969 1536.6816,102.2969 1536.6816,92.2969 L1536.6816,66.2969" fill="#E2E2F0" style="stroke:#181818;stroke-width:0.5;"/><path d="M1536.6816,66.2969 C1536.6816,76.2969 1554.6816,76.2969 1554.6816,76.2969 C1554.6816,76.2969 1572.6816,76.2969 1572.6816,66.2969" fill="none" style="stroke:#181818;stroke-width:0.5;"/></g><g class="participant participant-tail" data-entity-uid="part8" data-qualified-name="DB" id="part8-tail"><text fill="#000000" font-family="sans-serif" font-size="14" lengthAdjust="spacing" textLength="45.6982" x="1528.8325" y="1042.1123">SQLite</text><path d="M1536.6816,1055.4141 C1536.6816,1045.4141 1554.6816,1045.4141 1554.6816,1045.4141 C1554.6816,1045.4141 1572.6816,1045.4141 1572.6816,1055.4141 L1572.6816,1081.4141 C1572.6816,1091.4141 1554.6816,1091.4141 1554.6816,1091.4141 C1554.6816,1091.4141 1536.6816,1091.4141 1536.6816,1081.4141 L1536.6816,1055.4141" fill="#E2E2F0" style="stroke:#181818;stroke-width:0.5;"/><path d="M1536.6816,1055.4141 C1536.6816,1065.4141 1554.6816,1065.4141 1554.6816,1065.4141 C1554.6816,1065.4141 1572.6816,1065.4141 1572.6816,1055.4141" fill="none" style="stroke:#181818;stroke-width:0.5;"/></g><g class="participant participant-head" data-entity-uid="part9" data-qualified-name="FS" id="part9-head"><rect fill="#E2E2F0" height="30.2969" rx="2.5" ry="2.5" style="stroke:#181818;stroke-width:0.5;" width="95.1016" x="1590.5308" y="87.2969"/><text fill="#000000" font-family="sans-serif" font-size="14" lengthAdjust="spacing" textLength="81.1016" x="1597.5308" y="107.292">File System</text></g><g class="participant participant-tail" data-entity-uid="part9" data-qualified-name="FS" id="part9-tail"><rect fill="#E2E2F0" height="30.2969" rx="2.5" ry="2.5" style="stroke:#181818;stroke-width:0.5;" width="95.1016" x="1590.5308" y="1029.1172"/><text fill="#000000" font-family="sans-serif" font-size="14" lengthAdjust="spacing" textLength="81.1016" x="1597.5308" y="1049.1123">File System</text></g><rect fill="#EEEEEE" height="3" style="stroke:#EEEEEE;stroke-width:1;" width="1715.6323" x="0" y="149.1602"/><line style="stroke:#000000;stroke-width:1;" x1="0" x2="1715.6323" y1="149.1602" y2="149.1602"/><line style="stroke:#000000;stroke-width:1;" x1="0" x2="1715.6323" y1="152.1602" y2="152.1602"/><rect fill="#EEEEEE" height="23.1328" style="stroke:#000000;stroke-width:2;" width="267.1699" x="724.2312" y="138.5938"/><text fill="#000000" font-family="sans-serif" font-size="13" font-weight="bold" lengthAdjust="spacing" textLength="248.644" x="730.2312" y="154.6606">1. L&#234;n K&#7871; Ho&#7841;ch (Plan Audio Jobs)</text><g class="message" data-entity-1="part1" data-entity-2="part2" id="msg1"><polygon fill="#181818" points="138.9268,188.8594,148.9268,192.8594,138.9268,196.8594,142.9268,192.8594" style="stroke:#181818;stroke-width:1;"/><line style="stroke:#181818;stroke-width:1;" x1="23.9551" x2="144.9268" y1="192.8594" y2="192.8594"/><text fill="#000000" font-family="sans-serif" font-size="13" lengthAdjust="spacing" textLength="102.9717" x="30.9551" y="187.7935">Start TTS Phase</text></g><g class="message" data-entity-1="part2" data-entity-2="part3" id="msg2"><polygon fill="#181818" points="394.3369,217.9922,404.3369,221.9922,394.3369,225.9922,398.3369,221.9922" style="stroke:#181818;stroke-width:1;"/><line style="stroke:#181818;stroke-width:1;" x1="150.9268" x2="400.3369" y1="221.9922" y2="221.9922"/><text fill="#000000" font-family="sans-serif" font-size="13" lengthAdjust="spacing" textLength="101.5625" x="157.9268" y="216.9263">PlanAudioJobs()</text></g><g class="message" data-entity-1="part3" data-entity-2="part8" id="msg3"><polygon fill="#181818" points="1542.6816,247.125,1552.6816,251.125,1542.6816,255.125,1546.6816,251.125" style="stroke:#181818;stroke-width:1;"/><line style="stroke:#181818;stroke-width:1;" x1="406.3369" x2="1548.6816" y1="251.125" y2="251.125"/><text fill="#000000" font-family="sans-serif" font-size="13" lengthAdjust="spacing" textLength="277.9004" x="413.3369" y="246.0591">L&#7845;y c&#225;c MergeJob ho&#224;n th&#224;nh (Completed)</text></g><g class="message" data-entity-1="part3" data-entity-2="part8" id="msg4"><polygon fill="#181818" points="1542.6816,276.2578,1552.6816,280.2578,1542.6816,284.2578,1546.6816,280.2578" style="stroke:#181818;stroke-width:1;"/><line style="stroke:#181818;stroke-width:1;" x1="406.3369" x2="1548.6816" y1="280.2578" y2="280.2578"/><text fill="#000000" font-family="sans-serif" font-size="13" lengthAdjust="spacing" textLength="398.6011" x="413.3369" y="275.1919">X&#243;a c&#225;c b&#7843;n ghi AudioJob c&#361; r&#7891;i Bulk Insert (Status=Pending)</text></g><rect fill="#EEEEEE" height="3" style="stroke:#EEEEEE;stroke-width:1;" width="1715.6323" x="0" y="308.8242"/><line style="stroke:#000000;stroke-width:1;" x1="0" x2="1715.6323" y1="308.8242" y2="308.8242"/><line style="stroke:#000000;stroke-width:1;" x1="0" x2="1715.6323" y1="311.8242" y2="311.8242"/><rect fill="#EEEEEE" height="23.1328" style="stroke:#000000;stroke-width:2;" width="215.1953" x="750.2185" y="298.2578"/><text fill="#000000" font-family="sans-serif" font-size="13" font-weight="bold" lengthAdjust="spacing" textLength="196.6694" x="756.2185" y="314.3247">2. Kh&#7903;i t&#7841;o Pipeline (Start)</text><g class="message" data-entity-1="part2" data-entity-2="part3" id="msg5"><polygon fill="#181818" points="394.3369,348.5234,404.3369,352.5234,394.3369,356.5234,398.3369,352.5234" style="stroke:#181818;stroke-width:1;"/><line style="stroke:#181818;stroke-width:1;" x1="150.9268" x2="400.3369" y1="352.5234" y2="352.5234"/><text fill="#000000" font-family="sans-serif" font-size="13" lengthAdjust="spacing" textLength="231.4102" x="157.9268" y="347.4575">Start(Threads, Format, Voice, Rate)</text></g><g class="message" data-entity-1="part3" data-entity-2="part8" id="msg6"><polygon fill="#181818" points="1542.6816,377.6563,1552.6816,381.6563,1542.6816,385.6563,1546.6816,381.6563" style="stroke:#181818;stroke-width:1;"/><line style="stroke:#181818;stroke-width:1;" x1="406.3369" x2="1548.6816" y1="381.6563" y2="381.6563"/><text fill="#000000" font-family="sans-serif" font-size="13" lengthAdjust="spacing" textLength="229.4424" x="413.3369" y="376.5903">L&#7845;y c&#225;c AudioJob (Status=Pending)</text></g><g class="message" data-entity-1="part3" data-entity-2="part4" id="msg7"><polygon fill="#181818" points="781.9814,406.7891,791.9814,410.7891,781.9814,414.7891,785.9814,410.7891" style="stroke:#181818;stroke-width:1;"/><line style="stroke:#181818;stroke-width:1;" x1="406.3369" x2="787.9814" y1="410.7891" y2="410.7891"/><text fill="#000000" font-family="sans-serif" font-size="13" lengthAdjust="spacing" textLength="363.6445" x="413.3369" y="405.7231">N&#7841;p t&#7845;t c&#7843; v&#224;o h&#224;ng &#273;&#7907;i v&#224; &#273;&#225;nh d&#7845;u CompleteAdding()</text></g><path d="M345.7715,425.7891 L422.3955,425.7891 L422.3955,432.9219 L412.3955,442.9219 L345.7715,442.9219 L345.7715,425.7891" fill="#EEEEEE" style="stroke:#000000;stroke-width:1.5;"/><rect fill="none" height="88.3984" style="stroke:#000000;stroke-width:1.5;" width="918.8262" x="345.7715" y="425.7891"/><text fill="#000000" font-family="sans-serif" font-size="13" font-weight="bold" lengthAdjust="spacing" textLength="31.624" x="360.7715" y="438.856">loop</text><text fill="#000000" font-family="sans-serif" font-size="11" font-weight="bold" lengthAdjust="spacing" textLength="220.043" x="437.3955" y="437.9995">[C&#7845;p ph&#225;t Worker (T&#7889;i &#273;a 5 Lu&#7891;ng)]</text><g class="message" data-entity-1="part3" data-entity-2="part5" id="msg8"><polygon fill="#181818" points="996.1445,460.0547,1006.1445,464.0547,996.1445,468.0547,1000.1445,464.0547" style="stroke:#181818;stroke-width:1;"/><line style="stroke:#181818;stroke-width:1;" x1="406.3369" x2="1002.1445" y1="464.0547" y2="464.0547"/><text fill="#000000" font-family="sans-serif" font-size="13" lengthAdjust="spacing" textLength="261.8979" x="413.3369" y="458.9888">Kh&#7903;i t&#7841;o Thread() ch&#7913;a OS_TTS Instance</text></g><g class="message" data-entity-1="part5" data-entity-2="part5" id="msg9"><line style="stroke:#181818;stroke-width:1;" x1="1008.1445" x2="1050.1445" y1="493.1875" y2="493.1875"/><line style="stroke:#181818;stroke-width:1;" x1="1050.1445" x2="1050.1445" y1="493.1875" y2="506.1875"/><line style="stroke:#181818;stroke-width:1;" x1="1009.1445" x2="1050.1445" y1="506.1875" y2="506.1875"/><polygon fill="#181818" points="1019.1445,502.1875,1009.1445,506.1875,1019.1445,510.1875,1015.1445,506.1875" style="stroke:#181818;stroke-width:1;"/><text fill="#000000" font-family="sans-serif" font-size="13" lengthAdjust="spacing" textLength="237.4531" x="1015.1445" y="488.1216">Apply C&#7845;u h&#236;nh Gi&#7885;ng &#272;&#7885;c v&#224; T&#7889;c &#273;&#7897;</text></g><rect fill="#EEEEEE" height="3" style="stroke:#EEEEEE;stroke-width:1;" width="1715.6323" x="0" y="541.7539"/><line style="stroke:#000000;stroke-width:1;" x1="0" x2="1715.6323" y1="541.7539" y2="541.7539"/><line style="stroke:#000000;stroke-width:1;" x1="0" x2="1715.6323" y1="544.7539" y2="544.7539"/><rect fill="#EEEEEE" height="23.1328" style="stroke:#000000;stroke-width:2;" width="251.561" x="732.0356" y="531.1875"/><text fill="#000000" font-family="sans-serif" font-size="13" font-weight="bold" lengthAdjust="spacing" textLength="233.0352" x="738.0356" y="547.2544">3. X&#7917; l&#253; &#273;a lu&#7891;ng (&#272;a ti&#7871;n tr&#236;nh)</text><path d="M63.5029,571.3203 L140.127,571.3203 L140.127,578.4531 L130.127,588.4531 L63.5029,588.4531 L63.5029,571.3203" fill="#EEEEEE" style="stroke:#000000;stroke-width:1.5;"/><rect fill="none" height="412.6641" style="stroke:#000000;stroke-width:1.5;" width="1642.1294" x="63.5029" y="571.3203"/><text fill="#000000" font-family="sans-serif" font-size="13" font-weight="bold" lengthAdjust="spacing" textLength="31.624" x="78.5029" y="584.3872">loop</text><text fill="#000000" font-family="sans-serif" font-size="11" font-weight="bold" lengthAdjust="spacing" textLength="238.4067" x="155.127" y="583.5308">[Ch&#7901; c&#244;ng vi&#7879;c trong Queue (Parallel)]</text><g class="message" data-entity-1="part5" data-entity-2="part4" id="msg10"><polygon fill="#181818" points="804.9814,605.5859,794.9814,609.5859,804.9814,613.5859,800.9814,609.5859" style="stroke:#181818;stroke-width:1;"/><line style="stroke:#181818;stroke-width:1;" x1="798.9814" x2="1007.1445" y1="609.5859" y2="609.5859"/><text fill="#000000" font-family="sans-serif" font-size="13" lengthAdjust="spacing" textLength="190.1631" x="810.9814" y="604.52">L&#7845;y xu&#7845;t (Dequeue) AudioJob</text></g><g class="message" data-entity-1="part5" data-entity-2="part8" id="msg11"><polygon fill="#181818" points="1542.6816,634.7188,1552.6816,638.7188,1542.6816,642.7188,1546.6816,638.7188" style="stroke:#181818;stroke-width:1;"/><line style="stroke:#181818;stroke-width:1;" x1="1008.1445" x2="1548.6816" y1="638.7188" y2="638.7188"/><text fill="#000000" font-family="sans-serif" font-size="13" lengthAdjust="spacing" textLength="180.1465" x="1015.1445" y="633.6528">Update Status = InProgress</text></g><g class="message" data-entity-1="part5" data-entity-2="part9" id="msg12"><polygon fill="#181818" points="1626.0815,663.8516,1636.0815,667.8516,1626.0815,671.8516,1630.0815,667.8516" style="stroke:#181818;stroke-width:1;"/><line style="stroke:#181818;stroke-width:1;" x1="1008.1445" x2="1632.0815" y1="667.8516" y2="667.8516"/><text fill="#000000" font-family="sans-serif" font-size="13" lengthAdjust="spacing" textLength="176.8647" x="1015.1445" y="662.7856">&#272;&#7885;c n&#7897;i dung file G&#7897;p (.txt)</text></g><g class="message" data-entity-1="part9" data-entity-2="part5" id="msg13"><polygon fill="#181818" points="1019.1445,692.9844,1009.1445,696.9844,1019.1445,700.9844,1015.1445,696.9844" style="stroke:#181818;stroke-width:1;"/><line style="stroke:#181818;stroke-width:1;stroke-dasharray:2,2;" x1="1013.1445" x2="1637.0815" y1="696.9844" y2="696.9844"/><text fill="#000000" font-family="sans-serif" font-size="13" lengthAdjust="spacing" textLength="25.8857" x="1025.1445" y="691.9185">text</text></g><path d="M935.3223,711.9844 L999.7651,711.9844 L999.7651,719.1172 L989.7651,729.1172 L935.3223,729.1172 L935.3223,711.9844" fill="#EEEEEE" style="stroke:#000000;stroke-width:1.5;"/><rect fill="none" height="206.7344" style="stroke:#000000;stroke-width:1.5;" width="760.3101" x="935.3223" y="711.9844"/><text fill="#000000" font-family="sans-serif" font-size="13" font-weight="bold" lengthAdjust="spacing" textLength="19.4429" x="950.3223" y="725.0513">alt</text><text fill="#000000" font-family="sans-serif" font-size="11" font-weight="bold" lengthAdjust="spacing" textLength="190.2065" x="1014.7651" y="724.1948">[N&#7871;u c&#7845;u h&#236;nh &#273;&#7883;nh d&#7841;ng WAV]</text><g class="message" data-entity-1="part5" data-entity-2="part6" id="msg14"><polygon fill="#181818" points="1247.5977,746.25,1257.5977,750.25,1247.5977,754.25,1251.5977,750.25" style="stroke:#181818;stroke-width:1;"/><line style="stroke:#181818;stroke-width:1;" x1="1008.1445" x2="1253.5977" y1="750.25" y2="750.25"/><text fill="#000000" font-family="sans-serif" font-size="13" lengthAdjust="spacing" textLength="200.6938" x="1015.1445" y="745.1841">SetOutputToWaveFile(filePath)</text></g><g class="message" data-entity-1="part5" data-entity-2="part6" id="msg15"><polygon fill="#181818" points="1247.5977,775.3828,1257.5977,779.3828,1247.5977,783.3828,1251.5977,779.3828" style="stroke:#181818;stroke-width:1;"/><line style="stroke:#181818;stroke-width:1;" x1="1008.1445" x2="1253.5977" y1="779.3828" y2="779.3828"/><text fill="#000000" font-family="sans-serif" font-size="13" lengthAdjust="spacing" textLength="76.0259" x="1015.1445" y="774.3169">Speak(text)</text></g><line style="stroke:#000000;stroke-width:1;stroke-dasharray:2,2;" x1="935.3223" x2="1695.6323" y1="788.3828" y2="788.3828"/><text fill="#000000" font-family="sans-serif" font-size="11" font-weight="bold" lengthAdjust="spacing" textLength="187.709" x="940.3223" y="798.5933">[N&#7871;u c&#7845;u h&#236;nh &#273;&#7883;nh d&#7841;ng MP3]</text><g class="message" data-entity-1="part5" data-entity-2="part6" id="msg16"><polygon fill="#181818" points="1247.5977,819.3203,1257.5977,823.3203,1247.5977,827.3203,1251.5977,823.3203" style="stroke:#181818;stroke-width:1;"/><line style="stroke:#181818;stroke-width:1;" x1="1008.1445" x2="1253.5977" y1="823.3203" y2="823.3203"/><text fill="#000000" font-family="sans-serif" font-size="13" lengthAdjust="spacing" textLength="214.2778" x="1015.1445" y="818.2544">SetOutputToWaveFile(tempWav)</text></g><g class="message" data-entity-1="part5" data-entity-2="part6" id="msg17"><polygon fill="#181818" points="1247.5977,848.4531,1257.5977,852.4531,1247.5977,856.4531,1251.5977,852.4531" style="stroke:#181818;stroke-width:1;"/><line style="stroke:#181818;stroke-width:1;" x1="1008.1445" x2="1253.5977" y1="852.4531" y2="852.4531"/><text fill="#000000" font-family="sans-serif" font-size="13" lengthAdjust="spacing" textLength="76.0259" x="1015.1445" y="847.3872">Speak(text)</text></g><g class="message" data-entity-1="part5" data-entity-2="part7" id="msg18"><polygon fill="#181818" points="1430.7588,877.5859,1440.7588,881.5859,1430.7588,885.5859,1434.7588,881.5859" style="stroke:#181818;stroke-width:1;"/><line style="stroke:#181818;stroke-width:1;" x1="1008.1445" x2="1436.7588" y1="881.5859" y2="881.5859"/><text fill="#000000" font-family="sans-serif" font-size="13" lengthAdjust="spacing" textLength="275.812" x="1015.1445" y="876.52">ConvertWavToMp3(tempWav -&gt; finalMp3)</text></g><g class="message" data-entity-1="part5" data-entity-2="part9" id="msg19"><polygon fill="#181818" points="1626.0815,906.7188,1636.0815,910.7188,1626.0815,914.7188,1630.0815,910.7188" style="stroke:#181818;stroke-width:1;"/><line style="stroke:#181818;stroke-width:1;" x1="1008.1445" x2="1632.0815" y1="910.7188" y2="910.7188"/><text fill="#000000" font-family="sans-serif" font-size="13" lengthAdjust="spacing" textLength="142.2129" x="1015.1445" y="905.6528">File.Delete(tempWav)</text></g><g class="message" data-entity-1="part5" data-entity-2="part8" id="msg20"><polygon fill="#181818" points="1542.6816,942.8516,1552.6816,946.8516,1542.6816,950.8516,1546.6816,946.8516" style="stroke:#181818;stroke-width:1;"/><line style="stroke:#181818;stroke-width:1;" x1="1008.1445" x2="1548.6816" y1="946.8516" y2="946.8516"/><text fill="#000000" font-family="sans-serif" font-size="13" lengthAdjust="spacing" textLength="380.104" x="1015.1445" y="941.7856">Update Status = Completed (th&#224;nh c&#244;ng) / Failed (n&#7871;u l&#7895;i)</text></g><g class="message" data-entity-1="part5" data-entity-2="part2" id="msg21"><polygon fill="#181818" points="161.9268,971.9844,151.9268,975.9844,161.9268,979.9844,157.9268,975.9844" style="stroke:#181818;stroke-width:1;"/><line style="stroke:#181818;stroke-width:1;" x1="155.9268" x2="1007.1445" y1="975.9844" y2="975.9844"/><text fill="#000000" font-family="sans-serif" font-size="13" lengthAdjust="spacing" textLength="315.5928" x="167.9268" y="970.9185">Emit Progress Callback (doneCount / totalCount)</text></g><g class="message" data-entity-1="part3" data-entity-2="part2" id="msg22"><polygon fill="#181818" points="161.9268,1008.1172,151.9268,1012.1172,161.9268,1016.1172,157.9268,1012.1172" style="stroke:#181818;stroke-width:1;"/><line style="stroke:#181818;stroke-width:1;" x1="155.9268" x2="405.3369" y1="1012.1172" y2="1012.1172"/><text fill="#000000" font-family="sans-serif" font-size="13" lengthAdjust="spacing" textLength="185.8594" x="167.9268" y="1007.0513">Th&#244;ng b&#225;o Ho&#224;n T&#7845;t to&#224;n b&#7897;</text></g><?plantuml-src bLJDRjj64BxpAGRkXGHi1QtHYm45iEKgIICdJ2NRAL2WM95ZSQ7LBaiE5Ui9UYWA9CYXwA5eX2275EsfFLaeSc3w87oJpkvIRYJtBpx8tDdvPh_vveSaAOHpKqmlb7a2lQnQr3zfEAnIQI0SuINjaTaRveX95WM1ICWKS5fY4UIY89d8N6Y2dHCi9ZYYyapYanEJeje1KSBflM1iBc67BuPOp6M2E_31G4uo-XmLFxSLGqWDewn0aJhqQ3JST603FAgmmYzqUAHCCfLwqZDAOKBIwCY1tFqcp2Q7HHkvPAp_WjWOvK7UemnGfy24D-73HKauwtW9EiE5fWnBMJhWm-6NDrW-SDfr1cA649x4-_u9UmnIGM8iIkIWZmQIqDqS7stY-v8BuXzrz_rX47Ixy6471hOozvkhDt3ND5VB98CmLc9Th4_Dk8oWsmriTM3lDgiF1p0aZcsbX3ZZbmCsyfKz7u05Ewo5Xb5WhNnvVCHtW-RgrGAIUfc0gosxG6Rg5neeurz-kcTckKB2T1FukFvLUDoukNgfOP99M3y2oH-leMXMpoKSLMeAzpHJ9GYP95LbDsRzkQIHo_UZ3jpFcjMF4eXpDH3B79NKwBmByfc-auopjgKjTw5lYfcWNJWpt7Mxy9aW_CS4h-dT8D82N5CnvW4poIsVLmG9PmVp-eK1gyS4tZvhLY-bjV1dlMI5KlQhO2tJOMf3iig1CYQ77b_ca6VrajhsusbhLiyaemLy38EAPR8KWFzQ6csR7cmAurCE8qZO-bgqFMcr9Q4JT05Qv3j1E9l3F5SBHwJY77vcndTai_hMvlAK_oSk5yifSSbzRyV3bMQ_0u-RrI-WwjyTM-MvGlZsgG2ItA3S9OMDwAhaysLoFx3Slx7Vd9_vEc4NmmUlRHYBGl0agsYRxrfxNw_BoeaV7kDNrXvTryx1jh6kqASvZns2BorqMPYuC9C2otBRlM_xgCrTSy8IqeePNjY1lCFd7C8ENPAdoCvx6t8Ixyg_M0X5jbtULBPHhWMsEdxZMsF9aSyFpvpp5e-sWjpJI0yhoYiQcNCnHxiPGiic5fH5_uxCKKn3IydxeUAjyvzyU5kzDnzUKpaVte_Ebf_RbGSyAdhE-u2ZZSn9lhyERJqkf1QARNyBTtMpP3h7Q4TjavFjsl_T7DTB3S9spxcMZU0Mz0M_m7RjL5JDwZjverdTolra9WdMFGOzRkknIAOGfaPZprIyusy16HBA7I8_Lks8km2Zp8t9kERflkjsxiXrFRdlCNVYdm00?></g></svg>