<?plantuml 1.2026.2?><svg xmlns="http://www.w3.org/2000/svg" xmlns:xlink="http://www.w3.org/1999/xlink" contentStyleType="text/css" data-diagram-type="SEQUENCE" height="1257px" preserveAspectRatio="none" style="width:1645px;height:1257px;background:#FFFFFF;" version="1.1" viewBox="0 0 1645 1257" width="1645px" zoomAndPan="magnify"><title>Workflow Crawl - T&#7843;i v&#224; B&#243;c T&#225;ch Truy&#7879;n</title><defs/><g><text fill="#000000" font-family="sans-serif" font-size="14" font-weight="bold" lengthAdjust="spacing" textLength="322.2324" x="657.7371" y="27.9951">Workflow Crawl - T&#7843;i v&#224; B&#243;c T&#225;ch Truy&#7879;n</text><rect fill="#E0FFFF" height="1207.8438" style="stroke:#181818;stroke-width:0.5;" width="1051.0728" x="58.9102" y="43.2969"/><text fill="#000000" font-family="sans-serif" font-size="13" font-weight="bold" lengthAdjust="spacing" textLength="146.25" x="511.3215" y="55.3638">PipelineCoordinator</text><g><title>PipelineCoordinator</title><rect fill="#FFFFFF" height="1004.1172" style="stroke:#181818;stroke-width:1;" width="10" x="1542.8071" y="149.7266"/></g><rect fill="none" height="190.7969" style="stroke:#000000;stroke-width:1.5;" width="1295.5493" x="42.9102" y="395.6563"/><rect fill="none" height="75.3984" style="stroke:#000000;stroke-width:1.5;" width="1275.5493" x="52.9102" y="504.0547"/><rect fill="none" height="175.7969" style="stroke:#000000;stroke-width:1.5;" width="1134.4429" x="327.4648" y="672.7188"/><rect fill="none" height="190.9297" style="stroke:#000000;stroke-width:1.5;" width="661.5947" x="800.313" y="934.7813"/><g class="participant-lifeline" data-entity-uid="part1" data-qualified-name="User" id="part1-lifeline"><g><title>User</title><rect fill="#000000" fill-opacity="0.00000" height="1053.25" width="8" x="19.9551" y="118.5938"/><line style="stroke:#181818;stroke-width:0.5;stroke-dasharray:5,5;" x1="23" x2="23" y1="118.5938" y2="1171.8438"/></g></g><g class="participant-lifeline" data-entity-uid="part2" data-qualified-name="Crawler" id="part2-lifeline"><g><title>ChapterListCrawler</title><rect fill="#000000" fill-opacity="0.00000" height="1053.25" width="8" x="143.0425" y="118.5938"/><line style="stroke:#181818;stroke-width:0.5;stroke-dasharray:5,5;" x1="146.9102" x2="146.9102" y1="118.5938" y2="1171.8438"/></g></g><g class="participant-lifeline" data-entity-uid="part3" data-qualified-name="DLQueue" id="part3-lifeline"><g><title>DownloadQueue</title><rect fill="#000000" fill-opacity="0.00000" height="1053.25" width="8" x="420.3076" y="118.5938"/><line style="stroke:#181818;stroke-width:0.5;stroke-dasharray:5,5;" x1="423.4648" x2="423.4648" y1="118.5938" y2="1171.8438"/></g></g><g class="participant-lifeline" data-entity-uid="part4" data-qualified-name="Downloader" id="part4-lifeline"><g><title>HtmlDownloader</title><rect fill="#000000" fill-opacity="0.00000" height="1053.25" width="8" x="592.9019" y="118.5938"/><line style="stroke:#181818;stroke-width:0.5;stroke-dasharray:5,5;" x1="596.1504" x2="596.1504" y1="118.5938" y2="1171.8438"/></g></g><g class="participant-lifeline" data-entity-uid="part5" data-qualified-name="ParseQueue" id="part5-lifeline"><g><title>ParseQueue</title><rect fill="#000000" fill-opacity="0.00000" height="1053.25" width="8" x="893.1558" y="118.5938"/><line style="stroke:#181818;stroke-width:0.5;stroke-dasharray:5,5;" x1="896.313" x2="896.313" y1="118.5938" y2="1171.8438"/></g></g><g class="participant-lifeline" data-entity-uid="part6" data-qualified-name="Parser" id="part6-lifeline"><g><title>HtmlParser</title><rect fill="#000000" fill-opacity="0.00000" height="1053.25" width="8" x="1045.9907" y="118.5938"/><line style="stroke:#181818;stroke-width:0.5;stroke-dasharray:5,5;" x1="1048.9985" x2="1048.9985" y1="118.5938" y2="1171.8438"/></g></g><g class="participant-lifeline" data-entity-uid="part7" data-qualified-name="DB" id="part7-lifeline"><g><title>SQLite</title><rect fill="#000000" fill-opacity="0.00000" height="1053.25" width="8" x="1288.6104" y="118.5938"/><line style="stroke:#181818;stroke-width:0.5;stroke-dasharray:5,5;" x1="1291.7612" x2="1291.7612" y1="118.5938" y2="1171.8438"/></g></g><g class="participant-lifeline" data-entity-uid="part8" data-qualified-name="FS" id="part8-lifeline"><g><title>File System</title><rect fill="#000000" fill-opacity="0.00000" height="1053.25" width="8" x="1390.3569" y="118.5938"/><line style="stroke:#181818;stroke-width:0.5;stroke-dasharray:5,5;" x1="1393.8062" x2="1393.8062" y1="118.5938" y2="1171.8438"/></g></g><g class="participant-lifeline" data-entity-uid="part9" data-qualified-name="PipelineCoordinator" id="part9-lifeline"><g><title>PipelineCoordinator</title><rect fill="#000000" fill-opacity="0.00000" height="1053.25" width="8" x="1543.8071" y="118.5938"/><line style="stroke:#181818;stroke-width:0.5;stroke-dasharray:5,5;" x1="1546.9077" x2="1546.9077" y1="118.5938" y2="1171.8438"/></g></g><g class="participant participant-head" data-entity-uid="part1" data-qualified-name="User" id="part1-head"><text fill="#000000" font-family="sans-serif" font-size="14" lengthAdjust="spacing" textLength="31.9102" x="5" y="115.292">User</text><ellipse cx="23.9551" cy="50.7969" fill="#E2E2F0" rx="8" ry="8" style="stroke:#181818;stroke-width:0.5;"/><path d="M23.9551,58.7969 L23.9551,85.7969 M10.9551,66.7969 L36.9551,66.7969 M23.9551,85.7969 L10.9551,100.7969 M23.9551,85.7969 L36.9551,100.7969" fill="none" style="stroke:#181818;stroke-width:0.5;"/></g><g class="participant participant-tail" data-entity-uid="part1" data-qualified-name="User" id="part1-tail"><text fill="#000000" font-family="sans-serif" font-size="14" lengthAdjust="spacing" textLength="31.9102" x="5" y="1183.8389">User</text><ellipse cx="23.9551" cy="1195.6406" fill="#E2E2F0" rx="8" ry="8" style="stroke:#181818;stroke-width:0.5;"/><path d="M23.9551,1203.6406 L23.9551,1230.6406 M10.9551,1211.6406 L36.9551,1211.6406 M23.9551,1230.6406 L10.9551,1245.6406 M23.9551,1230.6406 L36.9551,1245.6406" fill="none" style="stroke:#181818;stroke-width:0.5;"/></g><g class="participant participant-head" data-entity-uid="part2" data-qualified-name="Crawler" id="part2-head"><rect fill="#E2E2F0" height="46.5938" rx="2.5" ry="2.5" style="stroke:#181818;stroke-width:0.5;" width="148.2646" x="72.9102" y="71"/><text fill="#000000" font-family="sans-serif" font-size="14" lengthAdjust="spacing" textLength="134.2646" x="79.9102" y="90.9951">ChapterListCrawler</text><text fill="#000000" font-family="sans-serif" font-size="14" lengthAdjust="spacing" textLength="73.541" x="110.272" y="107.292">[Thread 1]</text></g><g class="participant participant-tail" data-entity-uid="part2" data-qualified-name="Crawler" id="part2-tail"><rect fill="#E2E2F0" height="46.5938" rx="2.5" ry="2.5" style="stroke:#181818;stroke-width:0.5;" width="148.2646" x="72.9102" y="1170.8438"/><text fill="#000000" font-family="sans-serif" font-size="14" lengthAdjust="spacing" textLength="134.2646" x="79.9102" y="1190.8389">ChapterListCrawler</text><text fill="#000000" font-family="sans-serif" font-size="14" lengthAdjust="spacing" textLength="73.541" x="110.272" y="1207.1357">[Thread 1]</text></g><g class="participant participant-head" data-entity-uid="part3" data-qualified-name="DLQueue" id="part3-head"><rect fill="#E2E2F0" height="46.5938" rx="2.5" ry="2.5" style="stroke:#181818;stroke-width:0.5;" width="153.6855" x="347.4648" y="71"/><text fill="#000000" font-family="sans-serif" font-size="14" lengthAdjust="spacing" textLength="115.582" x="366.5166" y="90.9951">DownloadQueue</text><text fill="#000000" font-family="sans-serif" font-size="14" lengthAdjust="spacing" textLength="139.6855" x="354.4648" y="107.292">(BlockingCollection)</text></g><g class="participant participant-tail" data-entity-uid="part3" data-qualified-name="DLQueue" id="part3-tail"><rect fill="#E2E2F0" height="46.5938" rx="2.5" ry="2.5" style="stroke:#181818;stroke-width:0.5;" width="153.6855" x="347.4648" y="1170.8438"/><text fill="#000000" font-family="sans-serif" font-size="14" lengthAdjust="spacing" textLength="115.582" x="366.5166" y="1190.8389">DownloadQueue</text><text fill="#000000" font-family="sans-serif" font-size="14" lengthAdjust="spacing" textLength="139.6855" x="354.4648" y="1207.1357">(BlockingCollection)</text></g><g class="participant participant-head" data-entity-uid="part4" data-qualified-name="Downloader" id="part4-head"><rect fill="#E2E2F0" height="46.5938" rx="2.5" ry="2.5" style="stroke:#181818;stroke-width:0.5;" width="131.5029" x="531.1504" y="71"/><text fill="#000000" font-family="sans-serif" font-size="14" lengthAdjust="spacing" textLength="117.5029" x="538.1504" y="90.9951">HtmlDownloader</text><text fill="#000000" font-family="sans-serif" font-size="14" lengthAdjust="spacing" textLength="73.541" x="560.1313" y="107.292">[Thread 2]</text></g><g class="participant participant-tail" data-entity-uid="part4" data-qualified-name="Downloader" id="part4-tail"><rect fill="#E2E2F0" height="46.5938" rx="2.5" ry="2.5" style="stroke:#181818;stroke-width:0.5;" width="131.5029" x="531.1504" y="1170.8438"/><text fill="#000000" font-family="sans-serif" font-size="14" lengthAdjust="spacing" textLength="117.5029" x="538.1504" y="1190.8389">HtmlDownloader</text><text fill="#000000" font-family="sans-serif" font-size="14" lengthAdjust="spacing" textLength="73.541" x="560.1313" y="1207.1357">[Thread 2]</text></g><g class="participant participant-head" data-entity-uid="part5" data-qualified-name="ParseQueue" id="part5-head"><rect fill="#E2E2F0" height="46.5938" rx="2.5" ry="2.5" style="stroke:#181818;stroke-width:0.5;" width="153.6855" x="820.313" y="71"/><text fill="#000000" font-family="sans-serif" font-size="14" lengthAdjust="spacing" textLength="84.6768" x="854.8174" y="90.9951">ParseQueue</text><text fill="#000000" font-family="sans-serif" font-size="14" lengthAdjust="spacing" textLength="139.6855" x="827.313" y="107.292">(BlockingCollection)</text></g><g class="participant participant-tail" data-entity-uid="part5" data-qualified-name="ParseQueue" id="part5-tail"><rect fill="#E2E2F0" height="46.5938" rx="2.5" ry="2.5" style="stroke:#181818;stroke-width:0.5;" width="153.6855" x="820.313" y="1170.8438"/><text fill="#000000" font-family="sans-serif" font-size="14" lengthAdjust="spacing" textLength="84.6768" x="854.8174" y="1190.8389">ParseQueue</text><text fill="#000000" font-family="sans-serif" font-size="14" lengthAdjust="spacing" textLength="139.6855" x="827.313" y="1207.1357">(BlockingCollection)</text></g><g class="participant participant-head" data-entity-uid="part6" data-qualified-name="Parser" id="part6-head"><rect fill="#E2E2F0" height="46.5938" rx="2.5" ry="2.5" style="stroke:#181818;stroke-width:0.5;" width="91.9844" x="1003.9985" y="71"/><text fill="#000000" font-family="sans-serif" font-size="14" lengthAdjust="spacing" textLength="77.9844" x="1010.9985" y="90.9951">HtmlParser</text><text fill="#000000" font-family="sans-serif" font-size="14" lengthAdjust="spacing" textLength="73.541" x="1013.2202" y="107.292">[Thread 3]</text></g><g class="participant participant-tail" data-entity-uid="part6" data-qualified-name="Parser" id="part6-tail"><rect fill="#E2E2F0" height="46.5938" rx="2.5" ry="2.5" style="stroke:#181818;stroke-width:0.5;" width="91.9844" x="1003.9985" y="1170.8438"/><text fill="#000000" font-family="sans-serif" font-size="14" lengthAdjust="spacing" textLength="77.9844" x="1010.9985" y="1190.8389">HtmlParser</text><text fill="#000000" font-family="sans-serif" font-size="14" lengthAdjust="spacing" textLength="73.541" x="1013.2202" y="1207.1357">[Thread 3]</text></g><g class="participant participant-head" data-entity-uid="part7" data-qualified-name="DB" id="part7-head"><text fill="#000000" font-family="sans-serif" font-size="14" lengthAdjust="spacing" textLength="45.6982" x="1266.7612" y="115.292">SQLite</text><path d="M1274.6104,66.2969 C1274.6104,56.2969 1292.6104,56.2969 1292.6104,56.2969 C1292.6104,56.2969 1310.6104,56.2969 1310.6104,66.2969 L1310.6104,92.2969 C1310.6104,102.2969 1292.6104,102.2969 1292.6104,102.2969 C1292.6104,102.2969 1274.6104,102.2969 1274.6104,92.2969 L1274.6104,66.2969" fill="#E2E2F0" style="stroke:#181818;stroke-width:0.5;"/><path d="M1274.6104,66.2969 C1274.6104,76.2969 1292.6104,76.2969 1292.6104,76.2969 C1292.6104,76.2969 1310.6104,76.2969 1310.6104,66.2969" fill="none" style="stroke:#181818;stroke-width:0.5;"/></g><g class="participant participant-tail" data-entity-uid="part7" data-qualified-name="DB" id="part7-tail"><text fill="#000000" font-family="sans-serif" font-size="14" lengthAdjust="spacing" textLength="45.6982" x="1266.7612" y="1183.8389">SQLite</text><path d="M1274.6104,1197.1406 C1274.6104,1187.1406 1292.6104,1187.1406 1292.6104,1187.1406 C1292.6104,1187.1406 1310.6104,1187.1406 1310.6104,1197.1406 L1310.6104,1223.1406 C1310.6104,1233.1406 1292.6104,1233.1406 1292.6104,1233.1406 C1292.6104,1233.1406 1274.6104,1233.1406 1274.6104,1223.1406 L1274.6104,1197.1406" fill="#E2E2F0" style="stroke:#181818;stroke-width:0.5;"/><path d="M1274.6104,1197.1406 C1274.6104,1207.1406 1292.6104,1207.1406 1292.6104,1207.1406 C1292.6104,1207.1406 1310.6104,1207.1406 1310.6104,1197.1406" fill="none" style="stroke:#181818;stroke-width:0.5;"/></g><g class="participant participant-head" data-entity-uid="part8" data-qualified-name="FS" id="part8-head"><rect fill="#E2E2F0" height="30.2969" rx="2.5" ry="2.5" style="stroke:#181818;stroke-width:0.5;" width="95.1016" x="1346.8062" y="87.2969"/><text fill="#000000" font-family="sans-serif" font-size="14" lengthAdjust="spacing" textLength="81.1016" x="1353.8062" y="107.292">File System</text></g><g class="participant participant-tail" data-entity-uid="part8" data-qualified-name="FS" id="part8-tail"><rect fill="#E2E2F0" height="30.2969" rx="2.5" ry="2.5" style="stroke:#181818;stroke-width:0.5;" width="95.1016" x="1346.8062" y="1170.8438"/><text fill="#000000" font-family="sans-serif" font-size="14" lengthAdjust="spacing" textLength="81.1016" x="1353.8062" y="1190.8389">File System</text></g><g class="participant participant-head" data-entity-uid="part9" data-qualified-name="PipelineCoordinator" id="part9-head"><rect fill="#E2E2F0" height="30.2969" rx="2.5" ry="2.5" style="stroke:#181818;stroke-width:0.5;" width="151.7988" x="1471.9077" y="87.2969"/><text fill="#000000" font-family="sans-serif" font-size="14" lengthAdjust="spacing" textLength="137.7988" x="1478.9077" y="107.292">PipelineCoordinator</text></g><g class="participant participant-tail" data-entity-uid="part9" data-qualified-name="PipelineCoordinator" id="part9-tail"><rect fill="#E2E2F0" height="30.2969" rx="2.5" ry="2.5" style="stroke:#181818;stroke-width:0.5;" width="151.7988" x="1471.9077" y="1170.8438"/><text fill="#000000" font-family="sans-serif" font-size="14" lengthAdjust="spacing" textLength="137.7988" x="1478.9077" y="1190.8389">PipelineCoordinator</text></g><g><title>PipelineCoordinator</title><rect fill="#FFFFFF" height="1004.1172" style="stroke:#181818;stroke-width:1;" width="10" x="1542.8071" y="149.7266"/></g><g class="message" data-entity-1="part1" data-entity-2="part9" id="msg1"><polygon fill="#181818" points="1530.8071,145.7266,1540.8071,149.7266,1530.8071,153.7266,1534.8071,149.7266" style="stroke:#181818;stroke-width:1;"/><line style="stroke:#181818;stroke-width:1;" x1="23.9551" x2="1536.8071" y1="149.7266" y2="149.7266"/><text fill="#000000" font-family="sans-serif" font-size="13" lengthAdjust="spacing" textLength="41.9009" x="30.9551" y="144.6606">Start()</text></g><g class="message" data-entity-1="part9" data-entity-2="part3" id="msg2"><polygon fill="#181818" points="435.3076,174.8594,425.3076,178.8594,435.3076,182.8594,431.3076,178.8594" style="stroke:#181818;stroke-width:1;"/><line style="stroke:#181818;stroke-width:1;" x1="429.3076" x2="1541.8071" y1="178.8594" y2="178.8594"/><text fill="#000000" font-family="sans-serif" font-size="13" lengthAdjust="spacing" textLength="131.1553" x="441.3076" y="173.7935">Init (Max 200 items)</text></g><g class="message" data-entity-1="part9" data-entity-2="part5" id="msg3"><polygon fill="#181818" points="908.1558,203.9922,898.1558,207.9922,908.1558,211.9922,904.1558,207.9922" style="stroke:#181818;stroke-width:1;"/><line style="stroke:#181818;stroke-width:1;" x1="902.1558" x2="1541.8071" y1="207.9922" y2="207.9922"/><text fill="#000000" font-family="sans-serif" font-size="13" lengthAdjust="spacing" textLength="131.1553" x="914.1558" y="202.9263">Init (Max 200 items)</text></g><g class="message" data-entity-1="part9" data-entity-2="part2" id="msg4"><polygon fill="#181818" points="158.0425,233.125,148.0425,237.125,158.0425,241.125,154.0425,237.125" style="stroke:#181818;stroke-width:1;"/><line style="stroke:#181818;stroke-width:1;" x1="152.0425" x2="1541.8071" y1="237.125" y2="237.125"/><text fill="#000000" font-family="sans-serif" font-size="13" lengthAdjust="spacing" textLength="87.7881" x="164.0425" y="232.0591">Run Thread 1</text></g><g class="message" data-entity-1="part9" data-entity-2="part4" id="msg5"><polygon fill="#181818" points="607.9019,262.2578,597.9019,266.2578,607.9019,270.2578,603.9019,266.2578" style="stroke:#181818;stroke-width:1;"/><line style="stroke:#181818;stroke-width:1;" x1="601.9019" x2="1541.8071" y1="266.2578" y2="266.2578"/><text fill="#000000" font-family="sans-serif" font-size="13" lengthAdjust="spacing" textLength="87.7881" x="613.9019" y="261.1919">Run Thread 2</text></g><g class="message" data-entity-1="part9" data-entity-2="part6" id="msg6"><polygon fill="#181818" points="1060.9907,291.3906,1050.9907,295.3906,1060.9907,299.3906,1056.9907,295.3906" style="stroke:#181818;stroke-width:1;"/><line style="stroke:#181818;stroke-width:1;" x1="1054.9907" x2="1541.8071" y1="295.3906" y2="295.3906"/><text fill="#000000" font-family="sans-serif" font-size="13" lengthAdjust="spacing" textLength="87.7881" x="1066.9907" y="290.3247">Run Thread 3</text></g><rect fill="#EEEEEE" height="3" style="stroke:#EEEEEE;stroke-width:1;" width="1638.7065" x="0" y="323.957"/><line style="stroke:#000000;stroke-width:1;" x1="0" x2="1638.7065" y1="323.957" y2="323.957"/><line style="stroke:#000000;stroke-width:1;" x1="0" x2="1638.7065" y1="326.957" y2="326.957"/><rect fill="#EEEEEE" height="23.1328" style="stroke:#000000;stroke-width:2;" width="243.728" x="697.4893" y="313.3906"/><text fill="#000000" font-family="sans-serif" font-size="13" font-weight="bold" lengthAdjust="spacing" textLength="225.2021" x="703.4893" y="329.4575">Thread 1: Chapter List Crawler</text><g class="message" data-entity-1="part2" data-entity-2="part2" id="msg7"><line style="stroke:#181818;stroke-width:1;" x1="147.0425" x2="189.0425" y1="367.6563" y2="367.6563"/><line style="stroke:#181818;stroke-width:1;" x1="189.0425" x2="189.0425" y1="367.6563" y2="380.6563"/><line style="stroke:#181818;stroke-width:1;" x1="148.0425" x2="189.0425" y1="380.6563" y2="380.6563"/><polygon fill="#181818" points="158.0425,376.6563,148.0425,380.6563,158.0425,384.6563,154.0425,380.6563" style="stroke:#181818;stroke-width:1;"/><text fill="#000000" font-family="sans-serif" font-size="13" lengthAdjust="spacing" textLength="194.7524" x="154.0425" y="362.5903">T&#237;nh trang &amp; hash (ch&#7889;ng l&#7863;p)</text></g><path d="M42.9102,395.6563 L119.5342,395.6563 L119.5342,402.7891 L109.5342,412.7891 L42.9102,412.7891 L42.9102,395.6563" fill="#EEEEEE" style="stroke:#000000;stroke-width:1.5;"/><rect fill="none" height="190.7969" style="stroke:#000000;stroke-width:1.5;" width="1295.5493" x="42.9102" y="395.6563"/><text fill="#000000" font-family="sans-serif" font-size="13" font-weight="bold" lengthAdjust="spacing" textLength="31.624" x="57.9102" y="408.7231">loop</text><text fill="#000000" font-family="sans-serif" font-size="11" font-weight="bold" lengthAdjust="spacing" textLength="173.2554" x="134.5342" y="407.8667">[L&#7863;p t&#7915;ng trang Pagination]</text><g class="message" data-entity-1="part2" data-entity-2="part2" id="msg8"><line style="stroke:#181818;stroke-width:1;" x1="147.0425" x2="189.0425" y1="433.9219" y2="433.9219"/><line style="stroke:#181818;stroke-width:1;" x1="189.0425" x2="189.0425" y1="433.9219" y2="446.9219"/><line style="stroke:#181818;stroke-width:1;" x1="148.0425" x2="189.0425" y1="446.9219" y2="446.9219"/><polygon fill="#181818" points="158.0425,442.9219,148.0425,446.9219,158.0425,450.9219,154.0425,446.9219" style="stroke:#181818;stroke-width:1;"/><text fill="#000000" font-family="sans-serif" font-size="13" lengthAdjust="spacing" textLength="185.853" x="154.0425" y="428.856">HTTP GET trang List Chapter</text></g><g class="message" data-entity-1="part2" data-entity-2="part2" id="msg9"><line style="stroke:#181818;stroke-width:1;" x1="147.0425" x2="189.0425" y1="476.0547" y2="476.0547"/><line style="stroke:#181818;stroke-width:1;" x1="189.0425" x2="189.0425" y1="476.0547" y2="489.0547"/><line style="stroke:#181818;stroke-width:1;" x1="148.0425" x2="189.0425" y1="489.0547" y2="489.0547"/><polygon fill="#181818" points="158.0425,485.0547,148.0425,489.0547,158.0425,493.0547,154.0425,489.0547" style="stroke:#181818;stroke-width:1;"/><text fill="#000000" font-family="sans-serif" font-size="13" lengthAdjust="spacing" textLength="188.646" x="154.0425" y="470.9888">CSS Selector l&#7845;y URL ch&#432;&#417;ng</text></g><path d="M52.9102,504.0547 L117.353,504.0547 L117.353,511.1875 L107.353,521.1875 L52.9102,521.1875 L52.9102,504.0547" fill="#EEEEEE" style="stroke:#000000;stroke-width:1.5;"/><rect fill="none" height="75.3984" style="stroke:#000000;stroke-width:1.5;" width="1275.5493" x="52.9102" y="504.0547"/><text fill="#000000" font-family="sans-serif" font-size="13" font-weight="bold" lengthAdjust="spacing" textLength="19.4429" x="67.9102" y="517.1216">alt</text><text fill="#000000" font-family="sans-serif" font-size="11" font-weight="bold" lengthAdjust="spacing" textLength="173.8945" x="132.353" y="516.2651">[Ch&#432;&#417;ng ch&#432;a c&#243; trong DB?]</text><g class="message" data-entity-1="part2" data-entity-2="part7" id="msg10"><polygon fill="#181818" points="1280.6104,538.3203,1290.6104,542.3203,1280.6104,546.3203,1284.6104,542.3203" style="stroke:#181818;stroke-width:1;"/><line style="stroke:#181818;stroke-width:1;" x1="147.0425" x2="1286.6104" y1="542.3203" y2="542.3203"/><text fill="#000000" font-family="sans-serif" font-size="13" lengthAdjust="spacing" textLength="270.1118" x="154.0425" y="537.2544">L&#432;u th&#244;ng tin Chapter (Status = Pending)</text></g><g class="message" data-entity-1="part2" data-entity-2="part3" id="msg11"><polygon fill="#181818" points="412.3076,567.4531,422.3076,571.4531,412.3076,575.4531,416.3076,571.4531" style="stroke:#181818;stroke-width:1;"/><line style="stroke:#181818;stroke-width:1;" x1="147.0425" x2="418.3076" y1="571.4531" y2="571.4531"/><text fill="#000000" font-family="sans-serif" font-size="13" lengthAdjust="spacing" textLength="185.4277" x="154.0425" y="566.3872">Push (Ch&#432;&#417;ng) v&#224;o H&#224;ng &#273;&#7907;i</text></g><g class="message" data-entity-1="part2" data-entity-2="part3" id="msg12"><polygon fill="#181818" points="412.3076,610.5859,422.3076,614.5859,412.3076,618.5859,416.3076,614.5859" style="stroke:#181818;stroke-width:1;"/><line style="stroke:#181818;stroke-width:1;" x1="147.0425" x2="418.3076" y1="614.5859" y2="614.5859"/><text fill="#000000" font-family="sans-serif" font-size="13" lengthAdjust="spacing" textLength="253.2651" x="154.0425" y="609.52">&#272;&#225;nh d&#7845;u CompleteAdding() (H&#7871;t vi&#7879;c)</text></g><rect fill="#EEEEEE" height="3" style="stroke:#EEEEEE;stroke-width:1;" width="1638.7065" x="0" y="643.1523"/><line style="stroke:#000000;stroke-width:1;" x1="0" x2="1638.7065" y1="643.1523" y2="643.1523"/><line style="stroke:#000000;stroke-width:1;" x1="0" x2="1638.7065" y1="646.1523" y2="646.1523"/><rect fill="#EEEEEE" height="23.1328" style="stroke:#000000;stroke-width:2;" width="226.4243" x="706.1411" y="632.5859"/><text fill="#000000" font-family="sans-serif" font-size="13" font-weight="bold" lengthAdjust="spacing" textLength="207.8984" x="712.1411" y="648.6528">Thread 2: HTML Downloader</text><path d="M327.4648,672.7188 L404.0889,672.7188 L404.0889,679.8516 L394.0889,689.8516 L327.4648,689.8516 L327.4648,672.7188" fill="#EEEEEE" style="stroke:#000000;stroke-width:1.5;"/><rect fill="none" height="175.7969" style="stroke:#000000;stroke-width:1.5;" width="1134.4429" x="327.4648" y="672.7188"/><text fill="#000000" font-family="sans-serif" font-size="13" font-weight="bold" lengthAdjust="spacing" textLength="31.624" x="342.4648" y="685.7856">loop</text><text fill="#000000" font-family="sans-serif" font-size="11" font-weight="bold" lengthAdjust="spacing" textLength="93.4194" x="419.0889" y="684.9292">[Ch&#7901; DLQueue]</text><g class="message" data-entity-1="part4" data-entity-2="part3" id="msg13"><polygon fill="#181818" points="435.3076,706.9844,425.3076,710.9844,435.3076,714.9844,431.3076,710.9844" style="stroke:#181818;stroke-width:1;"/><line style="stroke:#181818;stroke-width:1;" x1="429.3076" x2="595.9019" y1="710.9844" y2="710.9844"/><text fill="#000000" font-family="sans-serif" font-size="13" lengthAdjust="spacing" textLength="123.0112" x="441.3076" y="705.9185">Dequeue (Ch&#432;&#417;ng)</text></g><g class="message" data-entity-1="part4" data-entity-2="part4" id="msg14"><line style="stroke:#181818;stroke-width:1;" x1="596.9019" x2="638.9019" y1="740.1172" y2="740.1172"/><line style="stroke:#181818;stroke-width:1;" x1="638.9019" x2="638.9019" y1="740.1172" y2="753.1172"/><line style="stroke:#181818;stroke-width:1;" x1="597.9019" x2="638.9019" y1="753.1172" y2="753.1172"/><polygon fill="#181818" points="607.9019,749.1172,597.9019,753.1172,607.9019,757.1172,603.9019,753.1172" style="stroke:#181818;stroke-width:1;"/><text fill="#000000" font-family="sans-serif" font-size="13" lengthAdjust="spacing" textLength="286.2539" x="603.9019" y="735.0513">HTTP GET chi ti&#7871;t ch&#432;&#417;ng (Retry b&#7857;ng Polly)</text></g><g class="message" data-entity-1="part4" data-entity-2="part8" id="msg15"><polygon fill="#181818" points="1382.3569,778.25,1392.3569,782.25,1382.3569,786.25,1386.3569,782.25" style="stroke:#181818;stroke-width:1;"/><line style="stroke:#181818;stroke-width:1;" x1="596.9019" x2="1388.3569" y1="782.25" y2="782.25"/><text fill="#000000" font-family="sans-serif" font-size="13" lengthAdjust="spacing" textLength="303.6528" x="603.9019" y="777.1841">Ghi file th&#244; v&#224;o th&#432; m&#7909;c /Html/{Padding}.html</text></g><g class="message" data-entity-1="part4" data-entity-2="part7" id="msg16"><polygon fill="#181818" points="1280.6104,807.3828,1290.6104,811.3828,1280.6104,815.3828,1284.6104,811.3828" style="stroke:#181818;stroke-width:1;"/><line style="stroke:#181818;stroke-width:1;" x1="596.9019" x2="1286.6104" y1="811.3828" y2="811.3828"/><text fill="#000000" font-family="sans-serif" font-size="13" lengthAdjust="spacing" textLength="247.3174" x="603.9019" y="806.3169">Update DownloadStatus = Completed</text></g><g class="message" data-entity-1="part4" data-entity-2="part5" id="msg17"><polygon fill="#181818" points="885.1558,836.5156,895.1558,840.5156,885.1558,844.5156,889.1558,840.5156" style="stroke:#181818;stroke-width:1;"/><line style="stroke:#181818;stroke-width:1;" x1="596.9019" x2="891.1558" y1="840.5156" y2="840.5156"/><text fill="#000000" font-family="sans-serif" font-size="13" lengthAdjust="spacing" textLength="225.4814" x="603.9019" y="835.4497">Push (Ch&#432;&#417;ng) v&#224;o H&#224;ng &#273;&#7907;i Parse</text></g><g class="message" data-entity-1="part4" data-entity-2="part5" id="msg18"><polygon fill="#181818" points="885.1558,872.6484,895.1558,876.6484,885.1558,880.6484,889.1558,876.6484" style="stroke:#181818;stroke-width:1;"/><line style="stroke:#181818;stroke-width:1;" x1="596.9019" x2="891.1558" y1="876.6484" y2="876.6484"/><text fill="#000000" font-family="sans-serif" font-size="13" lengthAdjust="spacing" textLength="185.5356" x="603.9019" y="871.5825">&#272;&#225;nh d&#7845;u CompleteAdding()</text></g><rect fill="#EEEEEE" height="3" style="stroke:#EEEEEE;stroke-width:1;" width="1638.7065" x="0" y="905.2148"/><line style="stroke:#000000;stroke-width:1;" x1="0" x2="1638.7065" y1="905.2148" y2="905.2148"/><line style="stroke:#000000;stroke-width:1;" x1="0" x2="1638.7065" y1="908.2148" y2="908.2148"/><rect fill="#EEEEEE" height="23.1328" style="stroke:#000000;stroke-width:2;" width="186.4214" x="726.1426" y="894.6484"/><text fill="#000000" font-family="sans-serif" font-size="13" font-weight="bold" lengthAdjust="spacing" textLength="167.8955" x="732.1426" y="910.7153">Thread 3: HTML Parser</text><path d="M800.313,934.7813 L876.937,934.7813 L876.937,941.9141 L866.937,951.9141 L800.313,951.9141 L800.313,934.7813" fill="#EEEEEE" style="stroke:#000000;stroke-width:1.5;"/><rect fill="none" height="190.9297" style="stroke:#000000;stroke-width:1.5;" width="661.5947" x="800.313" y="934.7813"/><text fill="#000000" font-family="sans-serif" font-size="13" font-weight="bold" lengthAdjust="spacing" textLength="31.624" x="815.313" y="947.8481">loop</text><text fill="#000000" font-family="sans-serif" font-size="11" font-weight="bold" lengthAdjust="spacing" textLength="112.1968" x="891.937" y="946.9917">[Ch&#7901; ParseQueue]</text><g class="message" data-entity-1="part6" data-entity-2="part5" id="msg19"><polygon fill="#181818" points="908.1558,969.0469,898.1558,973.0469,908.1558,977.0469,904.1558,973.0469" style="stroke:#181818;stroke-width:1;"/><line style="stroke:#181818;stroke-width:1;" x1="902.1558" x2="1048.9907" y1="973.0469" y2="973.0469"/><text fill="#000000" font-family="sans-serif" font-size="13" lengthAdjust="spacing" textLength="123.0112" x="914.1558" y="967.981">Dequeue (Ch&#432;&#417;ng)</text></g><g class="message" data-entity-1="part6" data-entity-2="part8" id="msg20"><polygon fill="#181818" points="1382.3569,998.1797,1392.3569,1002.1797,1382.3569,1006.1797,1386.3569,1002.1797" style="stroke:#181818;stroke-width:1;"/><line style="stroke:#181818;stroke-width:1;" x1="1049.9907" x2="1388.3569" y1="1002.1797" y2="1002.1797"/><text fill="#000000" font-family="sans-serif" font-size="13" lengthAdjust="spacing" textLength="138.4805" x="1056.9907" y="997.1138">&#272;&#7885;c file HTML chi ti&#7871;t</text></g><g class="message" data-entity-1="part6" data-entity-2="part6" id="msg21"><line style="stroke:#181818;stroke-width:1;" x1="1049.9907" x2="1091.9907" y1="1046.4453" y2="1046.4453"/><line style="stroke:#181818;stroke-width:1;" x1="1091.9907" x2="1091.9907" y1="1046.4453" y2="1059.4453"/><line style="stroke:#181818;stroke-width:1;" x1="1050.9907" x2="1091.9907" y1="1059.4453" y2="1059.4453"/><polygon fill="#181818" points="1060.9907,1055.4453,1050.9907,1059.4453,1060.9907,1063.4453,1056.9907,1059.4453" style="stroke:#181818;stroke-width:1;"/><text fill="#000000" font-family="sans-serif" font-size="13" lengthAdjust="spacing" textLength="221.6221" x="1056.9907" y="1026.2466">Xo&#225; th&#7867; script, iframe, qu&#7843;ng c&#225;o.</text><text fill="#000000" font-family="sans-serif" font-size="13" lengthAdjust="spacing" textLength="182.438" x="1056.9907" y="1041.3794">Tr&#237;ch xu&#7845;t th&#7867; ch&#7913;a Content</text></g><g class="message" data-entity-1="part6" data-entity-2="part8" id="msg22"><polygon fill="#181818" points="1382.3569,1084.5781,1392.3569,1088.5781,1382.3569,1092.5781,1386.3569,1088.5781" style="stroke:#181818;stroke-width:1;"/><line style="stroke:#181818;stroke-width:1;" x1="1049.9907" x2="1388.3569" y1="1088.5781" y2="1088.5781"/><text fill="#000000" font-family="sans-serif" font-size="13" lengthAdjust="spacing" textLength="320.3662" x="1056.9907" y="1083.5122">Ghi file text s&#7841;ch v&#224;o th&#432; m&#7909;c /Txt/{Padding}.txt</text></g><g class="message" data-entity-1="part6" data-entity-2="part7" id="msg23"><polygon fill="#181818" points="1280.6104,1113.7109,1290.6104,1117.7109,1280.6104,1121.7109,1284.6104,1117.7109" style="stroke:#181818;stroke-width:1;"/><line style="stroke:#181818;stroke-width:1;" x1="1049.9907" x2="1286.6104" y1="1117.7109" y2="1117.7109"/><text fill="#000000" font-family="sans-serif" font-size="13" lengthAdjust="spacing" textLength="218.6196" x="1056.9907" y="1112.645">Update ParseStatus = Completed</text></g><g class="message" data-entity-1="part9" data-entity-2="part1" id="msg24"><polygon fill="#181818" points="34.9551,1149.8438,24.9551,1153.8438,34.9551,1157.8438,30.9551,1153.8438" style="stroke:#181818;stroke-width:1;"/><line style="stroke:#181818;stroke-width:1;" x1="28.9551" x2="1546.8071" y1="1153.8438" y2="1153.8438"/><text fill="#000000" font-family="sans-serif" font-size="13" lengthAdjust="spacing" textLength="264.7671" x="40.9551" y="1148.7778">C&#7853;p nh&#7853;t s&#7921; ki&#7879;n Done / Resume / Pause</text></g><?plantuml-src ZLL1QnD15BxFhtXKa0IghUqj4CLih1KYfCqM1UjXkZlD3jtChBkpRO9uzYJK7o0Of0UHGek2a1myREd_s7_YczbDTjDkgZbbPzxtlM_Uz-QDuifdy4g6HuU-F04hf2S-F00xdNpZS9nyXLRoqm4x6JiUs64yIgSV1I7H4HS13Ua0MdBOfQxBHHyUhPVMkpHKtE415QgqJwYZP0Xx4Gl9WHp2IfS7pEU2MLA664HnTmNkTNZVKzQ82X8KDB1YUJHGBEpmI1cTBDmNRsmlPDI5HszNW4QGho_Ysl94-9AwEp6BsRwejNpfeD2-9NsVEOfBKJVWTiT4B8AtrS2V4PGJRcG9Ywr569u_OlzAM0JTpcdsIlastnQGa33X0XQG49SgUa0Z1hsT3bVCI6ejicrnTBWtYXGR68gj7Y7Q0NZm62hg3mteASJNwjejVaoHjIACa2eiKkPLH9eNWYkelQH3s5XV1rGtYEhBK4KfbW6N8NFB4ROR2vYrmr9rSxyM0Hjt2hiHl4b8ipbFrO2yCK5tvbnFiqbcVnTKsicvy4255A_4VV1ev47DyTBfP_psqydle4vyAGFewF-WqkaFtCZ2kxIlXM7_4C3VRVe6RDjs5vu_itD4fYYJjnHZzNhGOxepySWeuMm4UxiTSBphY-knw1iSzJLFjc1sA3Z9JymYyRlTUcA2RYHejnhGkRw8GNd9Btq8BkQbgc6FgJY29dInb_5kr2iPibvgG3VMPPe9gEl9964x-OgiLv_JwJTkqCYaRmQfOhWwJSPOTnUF5uCb1u7F57jg9bEj3hNjTF97mJ77-URKo_Pkw9g-x9GR1vqr3bdesfVvrD02Ia7bt6tspdHsSO2gwFbNoKN7urWsesrc1zHscGf7S91EBdLFu4mPLV5jzHhm7E67-lfh1xAYAQI1GJezSs1Dpvcrz_by_l3GmyygOMZZNk3gEJ3Rc9itAwHRWIkkz7_ubqKRzvQptEbXsRJDtBJyyYuQLfgwMdGUSoFL4ikAO5tUgzDq-id9Acpo5NPLKQEnhsKoHWlIoHGY9-I1MWL-YEybMuLtCRwv-d8bO_bmNzXXSevlxX1NprGEqMFYEyMJ2yM4gX1K-Cs62g9qef_jMxRRGrLoNGrlCfKCDukttGPZrBAHkMUEQgMJym042Z_NKgQNSAHlby0k4GpMO9T5yK3_wT8OdNVPNQ_DNm00?></g></svg>