<?plantuml 1.2026.2?><svg xmlns="http://www.w3.org/2000/svg" xmlns:xlink="http://www.w3.org/1999/xlink" contentStyleType="text/css" data-diagram-type="SEQUENCE" height="1057px" preserveAspectRatio="none" style="width:1362px;height:1057px;background:#FFFFFF;" version="1.1" viewBox="0 0 1362 1057" width="1362px" zoomAndPan="magnify"><title>Workflow L&#7885;c v&#224; G&#7897;p Ch&#432;&#417;ng (MergeService)</title><defs/><g><text fill="#000000" font-family="sans-serif" font-size="14" font-weight="bold" lengthAdjust="spacing" textLength="356.2891" x="499.0103" y="27.9951">Workflow L&#7885;c v&#224; G&#7897;p Ch&#432;&#417;ng (MergeService)</text><g><title>MergeService</title><rect fill="#FFFFFF" height="240.0625" style="stroke:#181818;stroke-width:1;" width="10" x="575.0005" y="221.9922"/></g><g><title>MergeService</title><rect fill="#FFFFFF" height="395.7266" style="stroke:#181818;stroke-width:1;" width="10" x="575.0005" y="563.4531"/></g><rect fill="none" height="88.3984" style="stroke:#000000;stroke-width:1.5;" width="581.7954" x="515.1558" y="345.5234"/><rect fill="none" height="294.3281" style="stroke:#000000;stroke-width:1.5;" width="1085.6675" x="234.9058" y="636.7188"/><rect fill="none" height="117.5313" style="stroke:#000000;stroke-width:1.5;" width="795.4175" x="515.1558" y="719.1172"/><g class="participant-lifeline" data-entity-uid="part1" data-qualified-name="User" id="part1-lifeline"><g><title>User</title><rect fill="#000000" fill-opacity="0.00000" height="858.5859" width="8" x="19.9551" y="118.5938"/><line style="stroke:#181818;stroke-width:0.5;stroke-dasharray:5,5;" x1="23" x2="23" y1="118.5938" y2="977.1797"/></g></g><g class="participant-lifeline" data-entity-uid="part2" data-qualified-name="UI" id="part2-lifeline"><g><title>MergeViewModel . UI</title><rect fill="#000000" fill-opacity="0.00000" height="858.5859" width="8" x="321.6587" y="118.5938"/><line style="stroke:#181818;stroke-width:0.5;stroke-dasharray:5,5;" x1="324.9058" x2="324.9058" y1="118.5938" y2="977.1797"/></g></g><g class="participant-lifeline" data-entity-uid="part3" data-qualified-name="Merger" id="part3-lifeline"><g><title>MergeService</title><rect fill="#000000" fill-opacity="0.00000" height="858.5859" width="8" x="576.0005" y="118.5938"/><line style="stroke:#181818;stroke-width:0.5;stroke-dasharray:5,5;" x1="579.1558" x2="579.1558" y1="118.5938" y2="977.1797"/></g></g><g class="participant-lifeline" data-entity-uid="part4" data-qualified-name="DB" id="part4-lifeline"><g><title>SQLite Database</title><rect fill="#000000" fill-opacity="0.00000" height="858.5859" width="8" x="1021.4766" y="118.5938"/><line style="stroke:#181818;stroke-width:0.5;stroke-dasharray:5,5;" x1="1025.002" x2="1025.002" y1="118.5938" y2="977.1797"/></g></g><g class="participant-lifeline" data-entity-uid="part5" data-qualified-name="FS" id="part5-lifeline"><g><title>File System .TXT . Merged.</title><rect fill="#000000" fill-opacity="0.00000" height="858.5859" width="8" x="1194.7622" y="118.5938"/><line style="stroke:#181818;stroke-width:0.5;stroke-dasharray:5,5;" x1="1197.9512" x2="1197.9512" y1="118.5938" y2="977.1797"/></g></g><g class="participant participant-head" data-entity-uid="part1" data-qualified-name="User" id="part1-head"><text fill="#000000" font-family="sans-serif" font-size="14" lengthAdjust="spacing" textLength="31.9102" x="5" y="115.292">User</text><ellipse cx="23.9551" cy="50.7969" fill="#E2E2F0" rx="8" ry="8" style="stroke:#181818;stroke-width:0.5;"/><path d="M23.9551,58.7969 L23.9551,85.7969 M10.9551,66.7969 L36.9551,66.7969 M23.9551,85.7969 L10.9551,100.7969 M23.9551,85.7969 L36.9551,100.7969" fill="none" style="stroke:#181818;stroke-width:0.5;"/></g><g class="participant participant-tail" data-entity-uid="part1" data-qualified-name="User" id="part1-tail"><text fill="#000000" font-family="sans-serif" font-size="14" lengthAdjust="spacing" textLength="31.9102" x="5" y="989.1748">User</text><ellipse cx="23.9551" cy="1000.9766" fill="#E2E2F0" rx="8" ry="8" style="stroke:#181818;stroke-width:0.5;"/><path d="M23.9551,1008.9766 L23.9551,1035.9766 M10.9551,1016.9766 L36.9551,1016.9766 M23.9551,1035.9766 L10.9551,1050.9766 M23.9551,1035.9766 L36.9551,1050.9766" fill="none" style="stroke:#181818;stroke-width:0.5;"/></g><g class="participant participant-head" data-entity-uid="part2" data-qualified-name="UI" id="part2-head"><rect fill="#E2E2F0" height="30.2969" rx="2.5" ry="2.5" style="stroke:#181818;stroke-width:0.5;" width="161.5059" x="244.9058" y="87.2969"/><text fill="#000000" font-family="sans-serif" font-size="14" lengthAdjust="spacing" textLength="147.5059" x="251.9058" y="107.292">MergeViewModel / UI</text></g><g class="participant participant-tail" data-entity-uid="part2" data-qualified-name="UI" id="part2-tail"><rect fill="#E2E2F0" height="30.2969" rx="2.5" ry="2.5" style="stroke:#181818;stroke-width:0.5;" width="161.5059" x="244.9058" y="976.1797"/><text fill="#000000" font-family="sans-serif" font-size="14" lengthAdjust="spacing" textLength="147.5059" x="251.9058" y="996.1748">MergeViewModel / UI</text></g><g class="participant participant-head" data-entity-uid="part3" data-qualified-name="Merger" id="part3-head"><rect fill="#E2E2F0" height="30.2969" rx="2.5" ry="2.5" style="stroke:#181818;stroke-width:0.5;" width="109.6895" x="525.1558" y="87.2969"/><text fill="#000000" font-family="sans-serif" font-size="14" lengthAdjust="spacing" textLength="95.6895" x="532.1558" y="107.292">MergeService</text></g><g class="participant participant-tail" data-entity-uid="part3" data-qualified-name="Merger" id="part3-tail"><rect fill="#E2E2F0" height="30.2969" rx="2.5" ry="2.5" style="stroke:#181818;stroke-width:0.5;" width="109.6895" x="525.1558" y="976.1797"/><text fill="#000000" font-family="sans-serif" font-size="14" lengthAdjust="spacing" textLength="95.6895" x="532.1558" y="996.1748">MergeService</text></g><g class="participant participant-head" data-entity-uid="part4" data-qualified-name="DB" id="part4-head"><text fill="#000000" font-family="sans-serif" font-size="14" lengthAdjust="spacing" textLength="116.9492" x="964.002" y="115.292">SQLite Database</text><path d="M1007.4766,66.2969 C1007.4766,56.2969 1025.4766,56.2969 1025.4766,56.2969 C1025.4766,56.2969 1043.4766,56.2969 1043.4766,66.2969 L1043.4766,92.2969 C1043.4766,102.2969 1025.4766,102.2969 1025.4766,102.2969 C1025.4766,102.2969 1007.4766,102.2969 1007.4766,92.2969 L1007.4766,66.2969" fill="#E2E2F0" style="stroke:#181818;stroke-width:0.5;"/><path d="M1007.4766,66.2969 C1007.4766,76.2969 1025.4766,76.2969 1025.4766,76.2969 C1025.4766,76.2969 1043.4766,76.2969 1043.4766,66.2969" fill="none" style="stroke:#181818;stroke-width:0.5;"/></g><g class="participant participant-tail" data-entity-uid="part4" data-qualified-name="DB" id="part4-tail"><text fill="#000000" font-family="sans-serif" font-size="14" lengthAdjust="spacing" textLength="116.9492" x="964.002" y="989.1748">SQLite Database</text><path d="M1007.4766,1002.4766 C1007.4766,992.4766 1025.4766,992.4766 1025.4766,992.4766 C1025.4766,992.4766 1043.4766,992.4766 1043.4766,1002.4766 L1043.4766,1028.4766 C1043.4766,1038.4766 1025.4766,1038.4766 1025.4766,1038.4766 C1025.4766,1038.4766 1007.4766,1038.4766 1007.4766,1028.4766 L1007.4766,1002.4766" fill="#E2E2F0" style="stroke:#181818;stroke-width:0.5;"/><path d="M1007.4766,1002.4766 C1007.4766,1012.4766 1025.4766,1012.4766 1025.4766,1012.4766 C1025.4766,1012.4766 1043.4766,1012.4766 1043.4766,1002.4766" fill="none" style="stroke:#181818;stroke-width:0.5;"/></g><g class="participant participant-head" data-entity-uid="part5" data-qualified-name="FS" id="part5-head"><rect fill="#E2E2F0" height="30.2969" rx="2.5" ry="2.5" style="stroke:#181818;stroke-width:0.5;" width="203.6221" x="1096.9512" y="87.2969"/><text fill="#000000" font-family="sans-serif" font-size="14" lengthAdjust="spacing" textLength="189.6221" x="1103.9512" y="107.292">File System (TXT / Merged)</text></g><g class="participant participant-tail" data-entity-uid="part5" data-qualified-name="FS" id="part5-tail"><rect fill="#E2E2F0" height="30.2969" rx="2.5" ry="2.5" style="stroke:#181818;stroke-width:0.5;" width="203.6221" x="1096.9512" y="976.1797"/><text fill="#000000" font-family="sans-serif" font-size="14" lengthAdjust="spacing" textLength="189.6221" x="1103.9512" y="996.1748">File System (TXT / Merged)</text></g><g><title>MergeService</title><rect fill="#FFFFFF" height="240.0625" style="stroke:#181818;stroke-width:1;" width="10" x="575.0005" y="221.9922"/></g><g><title>MergeService</title><rect fill="#FFFFFF" height="395.7266" style="stroke:#181818;stroke-width:1;" width="10" x="575.0005" y="563.4531"/></g><rect fill="#EEEEEE" height="3" style="stroke:#EEEEEE;stroke-width:1;" width="1355.3096" x="0" y="149.1602"/><line style="stroke:#000000;stroke-width:1;" x1="0" x2="1355.3096" y1="149.1602" y2="149.1602"/><line style="stroke:#000000;stroke-width:1;" x1="0" x2="1355.3096" y1="152.1602" y2="152.1602"/><rect fill="#EEEEEE" height="23.1328" style="stroke:#000000;stroke-width:2;" width="271.4482" x="541.9307" y="138.5938"/><text fill="#000000" font-family="sans-serif" font-size="13" font-weight="bold" lengthAdjust="spacing" textLength="252.9224" x="547.9307" y="154.6606">1. L&#234;n K&#7871; Ho&#7841;ch (Plan Merge Jobs)</text><g class="message" data-entity-1="part1" data-entity-2="part2" id="msg1"><polygon fill="#181818" points="313.6587,188.8594,323.6587,192.8594,313.6587,196.8594,317.6587,192.8594" style="stroke:#181818;stroke-width:1;"/><line style="stroke:#181818;stroke-width:1;" x1="23.9551" x2="319.6587" y1="192.8594" y2="192.8594"/><text fill="#000000" font-family="sans-serif" font-size="13" lengthAdjust="spacing" textLength="277.7036" x="30.9551" y="187.7935">C&#7845;u h&#236;nh Batch Size (v&#237; d&#7909;: 10 ch&#432;&#417;ng/file)</text></g><g class="message" data-entity-1="part2" data-entity-2="part3" id="msg2"><polygon fill="#181818" points="563.0005,217.9922,573.0005,221.9922,563.0005,225.9922,567.0005,221.9922" style="stroke:#181818;stroke-width:1;"/><line style="stroke:#181818;stroke-width:1;" x1="325.6587" x2="569.0005" y1="221.9922" y2="221.9922"/><text fill="#000000" font-family="sans-serif" font-size="13" lengthAdjust="spacing" textLength="224.231" x="332.6587" y="216.9263">PlanMergeJobs(chaptersPerMerge)</text></g><g class="message" data-entity-1="part3" data-entity-2="part4" id="msg3"><polygon fill="#181818" points="1013.4766,265.2578,1023.4766,269.2578,1013.4766,273.2578,1017.4766,269.2578" style="stroke:#181818;stroke-width:1;"/><line style="stroke:#181818;stroke-width:1;" x1="585.0005" x2="1019.4766" y1="269.2578" y2="269.2578"/><text fill="#000000" font-family="sans-serif" font-size="13" lengthAdjust="spacing" textLength="253.5444" x="592.0005" y="249.0591">L&#7845;y danh s&#225;ch Chapters &#273;&#227; Parse xong</text><text fill="#000000" font-family="sans-serif" font-size="13" lengthAdjust="spacing" textLength="406.7515" x="592.0005" y="264.1919">WHERE ParseStatus = 'Completed' ORDER BY ChapterNumber</text></g><path d="M1030,234.9922 L1030,274.9922 L1344,274.9922 L1344,244.9922 L1334,234.9922 L1030,234.9922" fill="#FEFFDD" style="stroke:#181818;stroke-width:0.5;"/><path d="M1334,234.9922 L1334,244.9922 L1344,244.9922 L1334,234.9922" fill="#FEFFDD" style="stroke:#181818;stroke-width:0.5;"/><text fill="#000000" font-family="sans-serif" font-size="13" lengthAdjust="spacing" textLength="293.833" x="1036" y="252.0591">&#272;&#226;y ch&#237;nh l&#224; b&#432;&#7899;c L&#7885;c (Filter). Nh&#7919;ng ch&#432;&#417;ng</text><text fill="#000000" font-family="sans-serif" font-size="13" lengthAdjust="spacing" textLength="281.3916" x="1036" y="267.1919">ch&#432;a t&#7843;i xong hay b&#7883; l&#7895;i s&#7869; kh&#244;ng &#273;&#432;&#7907;c G&#7897;p</text><g class="message" data-entity-1="part4" data-entity-2="part3" id="msg5"><polygon fill="#181818" points="596.0005,297.3906,586.0005,301.3906,596.0005,305.3906,592.0005,301.3906" style="stroke:#181818;stroke-width:1;"/><line style="stroke:#181818;stroke-width:1;stroke-dasharray:2,2;" x1="590.0005" x2="1024.4766" y1="301.3906" y2="301.3906"/><text fill="#000000" font-family="sans-serif" font-size="13" lengthAdjust="spacing" textLength="96.4844" x="602.0005" y="296.3247">List&lt;Chapter&gt;</text></g><g class="message" data-entity-1="part3" data-entity-2="part4" id="msg6"><polygon fill="#181818" points="1013.4766,326.5234,1023.4766,330.5234,1013.4766,334.5234,1017.4766,330.5234" style="stroke:#181818;stroke-width:1;"/><line style="stroke:#181818;stroke-width:1;" x1="585.0005" x2="1019.4766" y1="330.5234" y2="330.5234"/><text fill="#000000" font-family="sans-serif" font-size="13" lengthAdjust="spacing" textLength="322.334" x="592.0005" y="325.4575">Xo&#225; c&#225;c MergeJob c&#361; c&#7911;a Project (Pending/Failed)</text></g><path d="M515.1558,345.5234 L591.7798,345.5234 L591.7798,352.6563 L581.7798,362.6563 L515.1558,362.6563 L515.1558,345.5234" fill="#EEEEEE" style="stroke:#000000;stroke-width:1.5;"/><rect fill="none" height="88.3984" style="stroke:#000000;stroke-width:1.5;" width="581.7954" x="515.1558" y="345.5234"/><text fill="#000000" font-family="sans-serif" font-size="13" font-weight="bold" lengthAdjust="spacing" textLength="31.624" x="530.1558" y="358.5903">loop</text><text fill="#000000" font-family="sans-serif" font-size="11" font-weight="bold" lengthAdjust="spacing" textLength="96.0781" x="606.7798" y="357.7339">[T&#7841;o c&#225;c Batch]</text><g class="message" data-entity-1="part3" data-entity-2="part3" id="msg7"><line style="stroke:#181818;stroke-width:1;" x1="585.0005" x2="627.0005" y1="383.7891" y2="383.7891"/><line style="stroke:#181818;stroke-width:1;" x1="627.0005" x2="627.0005" y1="383.7891" y2="396.7891"/><line style="stroke:#181818;stroke-width:1;" x1="586.0005" x2="627.0005" y1="396.7891" y2="396.7891"/><polygon fill="#181818" points="596.0005,392.7891,586.0005,396.7891,596.0005,400.7891,592.0005,396.7891" style="stroke:#181818;stroke-width:1;"/><text fill="#000000" font-family="sans-serif" font-size="13" lengthAdjust="spacing" textLength="265.9541" x="592.0005" y="378.7231">Gom nh&#243;m [chaptersPerMerge] chapters</text></g><g class="message" data-entity-1="part3" data-entity-2="part4" id="msg8"><polygon fill="#181818" points="1013.4766,421.9219,1023.4766,425.9219,1013.4766,429.9219,1017.4766,425.9219" style="stroke:#181818;stroke-width:1;"/><line style="stroke:#181818;stroke-width:1;" x1="585.0005" x2="1019.4766" y1="425.9219" y2="425.9219"/><text fill="#000000" font-family="sans-serif" font-size="13" lengthAdjust="spacing" textLength="338.127" x="592.0005" y="420.856">T&#7841;o b&#7843;n ghi MergeJob m&#7899;i (MergeStatus = Pending)</text></g><g class="message" data-entity-1="part3" data-entity-2="part2" id="msg9"><polygon fill="#181818" points="336.6587,458.0547,326.6587,462.0547,336.6587,466.0547,332.6587,462.0547" style="stroke:#181818;stroke-width:1;"/><line style="stroke:#181818;stroke-width:1;" x1="330.6587" x2="579.0005" y1="462.0547" y2="462.0547"/><text fill="#000000" font-family="sans-serif" font-size="13" lengthAdjust="spacing" textLength="225.3418" x="342.6587" y="456.9888">G&#7917;i th&#7889;ng k&#234; k&#7871; ho&#7841;ch (Plan done)</text></g><rect fill="#EEEEEE" height="3" style="stroke:#EEEEEE;stroke-width:1;" width="1355.3096" x="0" y="490.6211"/><line style="stroke:#000000;stroke-width:1;" x1="0" x2="1355.3096" y1="490.6211" y2="490.6211"/><line style="stroke:#000000;stroke-width:1;" x1="0" x2="1355.3096" y1="493.6211" y2="493.6211"/><rect fill="#EEEEEE" height="23.1328" style="stroke:#000000;stroke-width:2;" width="290.6372" x="532.3362" y="480.0547"/><text fill="#000000" font-family="sans-serif" font-size="13" font-weight="bold" lengthAdjust="spacing" textLength="272.1113" x="538.3362" y="496.1216">2. Th&#7921;c thi G&#7897;p (Execute Merge Jobs)</text><g class="message" data-entity-1="part1" data-entity-2="part2" id="msg10"><polygon fill="#181818" points="313.6587,530.3203,323.6587,534.3203,313.6587,538.3203,317.6587,534.3203" style="stroke:#181818;stroke-width:1;"/><line style="stroke:#181818;stroke-width:1;" x1="23.9551" x2="319.6587" y1="534.3203" y2="534.3203"/><text fill="#000000" font-family="sans-serif" font-size="13" lengthAdjust="spacing" textLength="115.7051" x="30.9551" y="529.2544">Click [Run Merge]</text></g><g class="message" data-entity-1="part2" data-entity-2="part3" id="msg11"><polygon fill="#181818" points="563.0005,559.4531,573.0005,563.4531,563.0005,567.4531,567.0005,563.4531" style="stroke:#181818;stroke-width:1;"/><line style="stroke:#181818;stroke-width:1;" x1="325.6587" x2="569.0005" y1="563.4531" y2="563.4531"/><text fill="#000000" font-family="sans-serif" font-size="13" lengthAdjust="spacing" textLength="130.1523" x="332.6587" y="558.3872">ExecuteMergeJobs()</text></g><g class="message" data-entity-1="part3" data-entity-2="part4" id="msg12"><polygon fill="#181818" points="1013.4766,588.5859,1023.4766,592.5859,1013.4766,596.5859,1017.4766,592.5859" style="stroke:#181818;stroke-width:1;"/><line style="stroke:#181818;stroke-width:1;" x1="585.0005" x2="1019.4766" y1="592.5859" y2="592.5859"/><text fill="#000000" font-family="sans-serif" font-size="13" lengthAdjust="spacing" textLength="274.3521" x="592.0005" y="587.52">L&#7845;y c&#225;c b&#7843;n ghi Merge (Status = Pending)</text></g><g class="message" data-entity-1="part4" data-entity-2="part3" id="msg13"><polygon fill="#181818" points="596.0005,617.7188,586.0005,621.7188,596.0005,625.7188,592.0005,621.7188" style="stroke:#181818;stroke-width:1;"/><line style="stroke:#181818;stroke-width:1;stroke-dasharray:2,2;" x1="590.0005" x2="1024.4766" y1="621.7188" y2="621.7188"/><text fill="#000000" font-family="sans-serif" font-size="13" lengthAdjust="spacing" textLength="105.3584" x="602.0005" y="616.6528">List&lt;MergeJob&gt;</text></g><path d="M234.9058,636.7188 L311.5298,636.7188 L311.5298,643.8516 L301.5298,653.8516 L234.9058,653.8516 L234.9058,636.7188" fill="#EEEEEE" style="stroke:#000000;stroke-width:1.5;"/><rect fill="none" height="294.3281" style="stroke:#000000;stroke-width:1.5;" width="1085.6675" x="234.9058" y="636.7188"/><text fill="#000000" font-family="sans-serif" font-size="13" font-weight="bold" lengthAdjust="spacing" textLength="31.624" x="249.9058" y="649.7856">loop</text><text fill="#000000" font-family="sans-serif" font-size="11" font-weight="bold" lengthAdjust="spacing" textLength="103.6138" x="326.5298" y="648.9292">[T&#7915;ng MergeJob]</text><g class="message" data-entity-1="part3" data-entity-2="part4" id="msg14"><polygon fill="#181818" points="1013.4766,670.9844,1023.4766,674.9844,1013.4766,678.9844,1017.4766,674.9844" style="stroke:#181818;stroke-width:1;"/><line style="stroke:#181818;stroke-width:1;" x1="585.0005" x2="1019.4766" y1="674.9844" y2="674.9844"/><text fill="#000000" font-family="sans-serif" font-size="13" lengthAdjust="spacing" textLength="220.9556" x="592.0005" y="669.9185">Update MergeStatus = InProgress</text></g><g class="message" data-entity-1="part3" data-entity-2="part4" id="msg15"><polygon fill="#181818" points="1013.4766,700.1172,1023.4766,704.1172,1013.4766,708.1172,1017.4766,704.1172" style="stroke:#181818;stroke-width:1;"/><line style="stroke:#181818;stroke-width:1;" x1="585.0005" x2="1019.4766" y1="704.1172" y2="704.1172"/><text fill="#000000" font-family="sans-serif" font-size="13" lengthAdjust="spacing" textLength="313.3965" x="592.0005" y="699.0513">Tr&#237;ch xu&#7845;t List&lt;Chapter&gt; trong ph&#7841;m vi c&#7911;a Job</text></g><path d="M515.1558,719.1172 L591.7798,719.1172 L591.7798,726.25 L581.7798,736.25 L515.1558,736.25 L515.1558,719.1172" fill="#EEEEEE" style="stroke:#000000;stroke-width:1.5;"/><rect fill="none" height="117.5313" style="stroke:#000000;stroke-width:1.5;" width="795.4175" x="515.1558" y="719.1172"/><text fill="#000000" font-family="sans-serif" font-size="13" font-weight="bold" lengthAdjust="spacing" textLength="31.624" x="530.1558" y="732.1841">loop</text><text fill="#000000" font-family="sans-serif" font-size="11" font-weight="bold" lengthAdjust="spacing" textLength="94.2681" x="606.7798" y="731.3276">[T&#7915;ng Chapter]</text><g class="message" data-entity-1="part3" data-entity-2="part5" id="msg16"><polygon fill="#181818" points="1186.7622,753.3828,1196.7622,757.3828,1186.7622,761.3828,1190.7622,757.3828" style="stroke:#181818;stroke-width:1;"/><line style="stroke:#181818;stroke-width:1;" x1="585.0005" x2="1192.7622" y1="757.3828" y2="757.3828"/><text fill="#000000" font-family="sans-serif" font-size="13" lengthAdjust="spacing" textLength="164.5566" x="592.0005" y="752.3169">&#272;&#7885;c file {Padding_ID}.txt</text></g><g class="message" data-entity-1="part5" data-entity-2="part3" id="msg17"><polygon fill="#181818" points="596.0005,782.5156,586.0005,786.5156,596.0005,790.5156,592.0005,786.5156" style="stroke:#181818;stroke-width:1;"/><line style="stroke:#181818;stroke-width:1;stroke-dasharray:2,2;" x1="590.0005" x2="1197.7622" y1="786.5156" y2="786.5156"/><text fill="#000000" font-family="sans-serif" font-size="13" lengthAdjust="spacing" textLength="115.0259" x="602.0005" y="781.4497">N&#7897;i dung v&#259;n b&#7843;n</text></g><g class="message" data-entity-1="part3" data-entity-2="part3" id="msg18"><line style="stroke:#181818;stroke-width:1;" x1="585.0005" x2="627.0005" y1="815.6484" y2="815.6484"/><line style="stroke:#181818;stroke-width:1;" x1="627.0005" x2="627.0005" y1="815.6484" y2="828.6484"/><line style="stroke:#181818;stroke-width:1;" x1="586.0005" x2="627.0005" y1="828.6484" y2="828.6484"/><polygon fill="#181818" points="596.0005,824.6484,586.0005,828.6484,596.0005,832.6484,592.0005,828.6484" style="stroke:#181818;stroke-width:1;"/><text fill="#000000" font-family="sans-serif" font-size="13" lengthAdjust="spacing" textLength="300.5806" x="592.0005" y="810.5825">N&#7889;i v&#224;o StringBuilder + Th&#234;m v&#7841;ch ph&#226;n c&#225;ch</text></g><g class="message" data-entity-1="part3" data-entity-2="part5" id="msg19"><polygon fill="#181818" points="1186.7622,860.7813,1196.7622,864.7813,1186.7622,868.7813,1190.7622,864.7813" style="stroke:#181818;stroke-width:1;"/><line style="stroke:#181818;stroke-width:1;" x1="585.0005" x2="1192.7622" y1="864.7813" y2="864.7813"/><text fill="#000000" font-family="sans-serif" font-size="13" lengthAdjust="spacing" textLength="306.9346" x="592.0005" y="859.7153">Ghi file t&#7893;ng h&#7907;p v&#224;o /Merged/{From}-{To}.txt</text></g><g class="message" data-entity-1="part3" data-entity-2="part4" id="msg20"><polygon fill="#181818" points="1013.4766,889.9141,1023.4766,893.9141,1013.4766,897.9141,1017.4766,893.9141" style="stroke:#181818;stroke-width:1;"/><line style="stroke:#181818;stroke-width:1;" x1="585.0005" x2="1019.4766" y1="893.9141" y2="893.9141"/><text fill="#000000" font-family="sans-serif" font-size="13" lengthAdjust="spacing" textLength="416.4761" x="592.0005" y="888.8481">Update MergeJob Status = Completed (th&#224;nh c&#244;ng) / Failed (l&#7895;i)</text></g><g class="message" data-entity-1="part3" data-entity-2="part2" id="msg21"><polygon fill="#181818" points="336.6587,919.0469,326.6587,923.0469,336.6587,927.0469,332.6587,923.0469" style="stroke:#181818;stroke-width:1;"/><line style="stroke:#181818;stroke-width:1;" x1="330.6587" x2="574.0005" y1="923.0469" y2="923.0469"/><text fill="#000000" font-family="sans-serif" font-size="13" lengthAdjust="spacing" textLength="148.4653" x="342.6587" y="917.981">Emit event b&#225;o ti&#7871;n &#273;&#7897;</text></g><g class="message" data-entity-1="part3" data-entity-2="part2" id="msg22"><polygon fill="#181818" points="336.6587,955.1797,326.6587,959.1797,336.6587,963.1797,332.6587,959.1797" style="stroke:#181818;stroke-width:1;"/><line style="stroke:#181818;stroke-width:1;" x1="330.6587" x2="579.0005" y1="959.1797" y2="959.1797"/><text fill="#000000" font-family="sans-serif" font-size="13" lengthAdjust="spacing" textLength="148.9097" x="342.6587" y="954.1138">Th&#244;ng b&#225;o Ho&#224;n th&#224;nh</text></g><?plantuml-src ZLN1Rjj64BtpAnvy2Od2TjEZKFaWIxBTEgvgoKs292XMv4RSYk8Iv4gnQ-JKOr6WFXH1a4iSmoZgrcYAzYIYw86k_uD_qjabALkoYbO7aLZDpfjvxyr82HLmF9Jny7aWNs0tJxzpCSdUOYjFNqVOzA_VNv-60zWFU3pWNHvFXCiTosAkaZ4E4XvR4OkLS4N4GeKL4_Q5u2yUI8y7MCV1pWfOGeybSMKw4s0EOijZYlLPmh7I_NnNA8vcUM22cetvB6r1nNUF4iL7i7kFUeHdydYE2MztBQjUn_qrx6ON8JxDftzXM-RJKzU7tGbOM4JZ4zbF7DJhbku7gnjKRGsR-VHy33_x9VJHO8gkTCNN7FOakuINf-SrtFyGRidF-dEgnB4ETlJjefKQD89vr_bjrsUHud7IuR4vT3I7OiAenx9tgtZg5Cr6ZRIOdX_1OuIVPBhapJ83hawoCtHOJ3GTod3mD7outTfl5ITTnTGuGHttDkKe2hZYtZryjjzixQFnk4gnDnxr2J2K11wBWQzgkFe-UtT4_MINX1UG0VhNx_FqZLjQmYQgwQApXZq_JtybHrIjFmtr6uFAfsV2r0EV7Q6VfzyYoDDN0aa-_HD3F_k3VhewqMdFtC9VLhE1rLkCxOf4VLpMkB50noEPdS8b8b1n2lVld-3cwOyCdLX-nLr5glBG4wH7cv4WdcC5KaReaUIok6kKj42Vc-mL-fOS8VIptqTuiYZMCrGd2tTrPKNwFlKVOk2Bc_f6HA2eHgVIfQpGiUXvgqLjEUBaKa0HmIT4rJ2xm51Rrf-ph2T3yex7xxY7dFxH6dfq-pUNaeXoXEtM8NV7LTo_U3qGxX1FziVbH3nRS7APuiRC_zEyXl85Oc3VfMAP3Igm3QiICVsPMAcEb-Xm47cpWcOOEo5vOn3pPAboSNP9n1wEgLerxpweM5ivyedx4IQYD5g5RBvkrrNUC-VpGEskdYupHNfBuBZ3FDtsbplDbslgK65sfzsTes6Fz1FmnfHzSlLDM12v1E1M_8dGorkYgs92Q8n5u57C1-IAx8AwA7mK-Tcxq6XJJ0AfC6l9kblx5Ybd2bTv-eEURfhVg81PBxRj-d4xbgENgySzQJhw3stqQCpqcMqfsChFtjBoSVMYS6YL5pCCssmHPo6fjcrh91JuXDDVGJ-Z4LI2nYMa7KF4BHclNh62JEYs92mKY7U7wHy0?></g></svg>